  0
SECTION
  2
HEADER
  9
$ACADVER
  1
AC1009
  9
$EXTMIN
 10
0.0
 20
0.0
 30
0.0
  9
$EXTMAX
 10
1000.0
 20
1000.0
 30
0.0
  9
$FILLMODE
 70
 0
  9
$SPLFRAME
 70
 1
  0
ENDSEC
  0
SECTION
  2
TABLES
  0
TABLE
  2
LAYER
 70
1
  0
LAYER
  2
0
 70
     0
 62
     7
  6
CONTINUOUS
  0
ENDTAB
  0
ENDSEC
  0
SECTION
  2
ENTITIES
  0
LINE
  8
0
 62
     0
 10
60.8101
 20
73.2938
 30
0.0
 11
60.4587
 21
73.3199
 31
0.0
  0
LINE
  8
0
 62
     0
 10
60.4587
 20
73.3199
 30
0.0
 11
58.6811
 21
73.2977
 31
0.0
  0
LINE
  8
0
 62
     0
 10
58.6811
 20
73.2977
 30
0.0
 11
56.9143
 21
72.959
 31
0.0
  0
LINE
  8
0
 62
     0
 10
56.9143
 20
72.959
 30
0.0
 11
56.5697
 21
72.8253
 31
0.0
  0
LINE
  8
0
 62
     0
 10
56.5697
 20
72.8253
 30
0.0
 11
56.4515
 21
72.7812
 31
0.0
  0
LINE
  8
0
 62
     0
 10
56.4515
 20
72.7812
 30
0.0
 11
55.8655
 21
72.427
 31
0.0
  0
LINE
  8
0
 62
     0
 10
55.8655
 20
72.427
 30
0.0
 11
55.4083
 21
71.9473
 31
0.0
  0
LINE
  8
0
 62
     0
 10
55.4083
 20
71.9473
 30
0.0
 11
55.3558
 21
71.84
 31
0.0
  0
LINE
  8
0
 62
     0
 10
55.3558
 20
71.84
 30
0.0
 11
55.196
 21
71.5133
 31
0.0
  0
LINE
  8
0
 62
     0
 10
55.196
 20
71.5133
 30
0.0
 11
54.8541
 21
70.4645
 31
0.0
  0
LINE
  8
0
 62
     0
 10
54.8541
 20
70.4645
 30
0.0
 11
54.6862
 21
69.0771
 31
0.0
  0
LINE
  8
0
 62
     0
 10
54.6862
 20
69.0771
 30
0.0
 11
54.8499
 21
67.6836
 31
0.0
  0
LINE
  8
0
 62
     0
 10
54.8499
 20
67.6836
 30
0.0
 11
55.1836
 21
66.6267
 31
0.0
  0
LINE
  8
0
 62
     0
 10
55.1836
 20
66.6267
 30
0.0
 11
55.3406
 21
66.2947
 31
0.0
  0
LINE
  8
0
 62
     0
 10
55.3406
 20
66.2947
 30
0.0
 11
55.3681
 21
66.234
 31
0.0
  0
LINE
  8
0
 62
     0
 10
55.3681
 20
66.234
 30
0.0
 11
55.8437
 21
65.7119
 31
0.0
  0
LINE
  8
0
 62
     0
 10
55.8437
 20
65.7119
 30
0.0
 11
55.8973
 21
65.6678
 31
0.0
  0
LINE
  8
0
 62
     0
 10
55.8973
 20
65.6678
 30
0.0
 11
56.0504
 21
65.5422
 31
0.0
  0
LINE
  8
0
 62
     0
 10
56.0504
 20
65.5422
 30
0.0
 11
56.5848
 21
65.253
 31
0.0
  0
LINE
  8
0
 62
     0
 10
56.5848
 20
65.253
 30
0.0
 11
57.3306
 21
65.0558
 31
0.0
  0
LINE
  8
0
 62
     0
 10
57.3306
 20
65.0558
 30
0.0
 11
58.094
 21
65.0667
 31
0.0
  0
LINE
  8
0
 62
     0
 10
58.094
 20
65.0667
 30
0.0
 11
58.8328
 21
65.2709
 31
0.0
  0
LINE
  8
0
 62
     0
 10
58.8328
 20
65.2709
 30
0.0
 11
59.508
 21
65.6551
 31
0.0
  0
LINE
  8
0
 62
     0
 10
59.508
 20
65.6551
 30
0.0
 11
60.0812
 21
66.2065
 31
0.0
  0
LINE
  8
0
 62
     0
 10
60.0812
 20
66.2065
 30
0.0
 11
60.5095
 21
66.9107
 31
0.0
  0
LINE
  8
0
 62
     0
 10
60.5095
 20
66.9107
 30
0.0
 11
60.7233
 21
67.539
 31
0.0
  0
LINE
  8
0
 62
     0
 10
60.7233
 20
67.539
 30
0.0
 11
60.7564
 21
67.7541
 31
0.0
  0
LINE
  8
0
 62
     0
 10
60.7564
 20
67.7541
 30
0.0
 11
60.8252
 21
68.2032
 31
0.0
  0
LINE
  8
0
 62
     0
 10
60.8252
 20
68.2032
 30
0.0
 11
60.8859
 21
70.4921
 31
0.0
  0
LINE
  8
0
 62
     0
 10
60.8859
 20
70.4921
 30
0.0
 11
60.8101
 21
72.5936
 31
0.0
  0
LINE
  8
0
 62
     0
 10
60.8101
 20
72.5936
 30
0.0
 11
60.8101
 21
73.2938
 31
0.0
  0
LINE
  8
0
 62
     0
 10
61.1188
 20
66.2122
 30
0.0
 11
60.7603
 21
65.7229
 31
0.0
  0
LINE
  8
0
 62
     0
 10
60.7603
 20
65.7229
 30
0.0
 11
59.2596
 21
64.564
 31
0.0
  0
LINE
  8
0
 62
     0
 10
59.2596
 20
64.564
 30
0.0
 11
57.1292
 21
63.93
 31
0.0
  0
LINE
  8
0
 62
     0
 10
57.1292
 20
63.93
 30
0.0
 11
55.0016
 21
64.0789
 31
0.0
  0
LINE
  8
0
 62
     0
 10
55.0016
 20
64.0789
 30
0.0
 11
53.5781
 21
64.5403
 31
0.0
  0
LINE
  8
0
 62
     0
 10
53.5781
 20
64.5403
 30
0.0
 11
53.1509
 21
64.776
 31
0.0
  0
LINE
  8
0
 62
     0
 10
53.1509
 20
64.776
 30
0.0
 11
52.7389
 21
65.0035
 31
0.0
  0
LINE
  8
0
 62
     0
 10
52.7389
 20
65.0035
 30
0.0
 11
51.7052
 21
66.0453
 31
0.0
  0
LINE
  8
0
 62
     0
 10
51.7052
 20
66.0453
 30
0.0
 11
50.9418
 21
67.7362
 31
0.0
  0
LINE
  8
0
 62
     0
 10
50.9418
 20
67.7362
 30
0.0
 11
50.9171
 21
69.5896
 31
0.0
  0
LINE
  8
0
 62
     0
 10
50.9171
 20
69.5896
 30
0.0
 11
51.4117
 21
70.9704
 31
0.0
  0
LINE
  8
0
 62
     0
 10
51.4117
 20
70.9704
 30
0.0
 11
51.689
 21
71.3479
 31
0.0
  0
LINE
  8
0
 62
     0
 10
51.689
 20
71.3479
 30
0.0
 11
51.9836
 21
71.7532
 31
0.0
  0
LINE
  8
0
 62
     0
 10
51.9836
 20
71.7532
 30
0.0
 11
53.0902
 21
72.8073
 31
0.0
  0
LINE
  8
0
 62
     0
 10
53.0902
 20
72.8073
 30
0.0
 11
54.7289
 21
73.7789
 31
0.0
  0
LINE
  8
0
 62
     0
 10
54.7289
 20
73.7789
 30
0.0
 11
56.5535
 21
74.3631
 31
0.0
  0
LINE
  8
0
 62
     0
 10
56.5535
 20
74.3631
 30
0.0
 11
58.0238
 21
74.6153
 31
0.0
  0
LINE
  8
0
 62
     0
 10
58.0238
 20
74.6153
 30
0.0
 11
58.517
 21
74.6594
 31
0.0
  0
LINE
  8
0
 62
     0
 10
58.517
 20
74.6594
 30
0.0
 11
58.7128
 21
74.6774
 31
0.0
  0
LINE
  8
0
 62
     0
 10
58.7128
 20
74.6774
 30
0.0
 11
60.7067
 21
74.7681
 31
0.0
  0
LINE
  8
0
 62
     0
 10
60.7067
 20
74.7681
 30
0.0
 11
60.9106
 21
74.778
 31
0.0
  0
LINE
  8
0
 62
     0
 10
60.9106
 20
74.778
 30
0.0
 11
60.9452
 21
75.0905
 31
0.0
  0
LINE
  8
0
 62
     0
 10
60.9452
 20
75.0905
 30
0.0
 11
60.9794
 21
76.036
 31
0.0
  0
LINE
  8
0
 62
     0
 10
60.9794
 20
76.036
 30
0.0
 11
60.8281
 21
77.2114
 31
0.0
  0
LINE
  8
0
 62
     0
 10
60.8281
 20
77.2114
 30
0.0
 11
60.3525
 21
78.2821
 31
0.0
  0
LINE
  8
0
 62
     0
 10
60.3525
 20
78.2821
 30
0.0
 11
59.7076
 21
79.0332
 31
0.0
  0
LINE
  8
0
 62
     0
 10
59.7076
 20
79.0332
 30
0.0
 11
59.4512
 21
79.2275
 31
0.0
  0
LINE
  8
0
 62
     0
 10
59.4512
 20
79.2275
 30
0.0
 11
59.8936
 21
79.2593
 31
0.0
  0
LINE
  8
0
 62
     0
 10
59.8936
 20
79.2593
 30
0.0
 11
61.2454
 21
79.0374
 31
0.0
  0
LINE
  8
0
 62
     0
 10
61.2454
 20
79.0374
 30
0.0
 11
62.6953
 21
78.263
 31
0.0
  0
LINE
  8
0
 62
     0
 10
62.6953
 20
78.263
 30
0.0
 11
63.675
 21
77.0075
 31
0.0
  0
LINE
  8
0
 62
     0
 10
63.675
 20
77.0075
 30
0.0
 11
64.05
 21
75.7837
 31
0.0
  0
LINE
  8
0
 62
     0
 10
64.05
 20
75.7837
 30
0.0
 11
64.0609
 21
75.3731
 31
0.0
  0
LINE
  8
0
 62
     0
 10
64.0609
 20
75.3731
 30
0.0
 11
64.0789
 21
74.6689
 31
0.0
  0
LINE
  8
0
 62
     0
 10
64.0789
 20
74.6689
 30
0.0
 11
64.1092
 21
67.6176
 31
0.0
  0
LINE
  8
0
 62
     0
 10
64.1092
 20
67.6176
 30
0.0
 11
64.1103
 21
66.9121
 31
0.0
  0
LINE
  8
0
 62
     0
 10
64.1103
 20
66.9121
 30
0.0
 11
64.1103
 21
66.6958
 31
0.0
  0
LINE
  8
0
 62
     0
 10
64.1103
 20
66.6958
 30
0.0
 11
64.1932
 21
66.0453
 31
0.0
  0
LINE
  8
0
 62
     0
 10
64.1932
 20
66.0453
 30
0.0
 11
64.4772
 21
65.4925
 31
0.0
  0
LINE
  8
0
 62
     0
 10
64.4772
 20
65.4925
 30
0.0
 11
65.0173
 21
65.199
 31
0.0
  0
LINE
  8
0
 62
     0
 10
65.0173
 20
65.199
 30
0.0
 11
65.6594
 21
65.1097
 31
0.0
  0
LINE
  8
0
 62
     0
 10
65.6594
 20
65.1097
 30
0.0
 11
65.8742
 21
65.1069
 31
0.0
  0
LINE
  8
0
 62
     0
 10
65.8742
 20
65.1069
 30
0.0
 11
65.9253
 21
65.1069
 31
0.0
  0
LINE
  8
0
 62
     0
 10
65.9253
 20
65.1069
 30
0.0
 11
66.4379
 21
65.0984
 31
0.0
  0
LINE
  8
0
 62
     0
 10
66.4379
 20
65.0984
 30
0.0
 11
66.4849
 21
65.0833
 31
0.0
  0
LINE
  8
0
 62
     0
 10
66.4849
 20
65.0833
 30
0.0
 11
66.5152
 21
65.0737
 31
0.0
  0
LINE
  8
0
 62
     0
 10
66.5152
 20
65.0737
 30
0.0
 11
66.7646
 21
64.7732
 31
0.0
  0
LINE
  8
0
 62
     0
 10
66.7646
 20
64.7732
 30
0.0
 11
66.7713
 21
64.739
 31
0.0
  0
LINE
  8
0
 62
     0
 10
66.7713
 20
64.739
 30
0.0
 11
66.7755
 21
64.7153
 31
0.0
  0
LINE
  8
0
 62
     0
 10
66.7755
 20
64.7153
 30
0.0
 11
66.7039
 21
64.5375
 31
0.0
  0
LINE
  8
0
 62
     0
 10
66.7039
 20
64.5375
 30
0.0
 11
66.5854
 21
64.4095
 31
0.0
  0
LINE
  8
0
 62
     0
 10
66.5854
 20
64.4095
 30
0.0
 11
66.5674
 21
64.4095
 31
0.0
  0
LINE
  8
0
 62
     0
 10
66.5674
 20
64.4095
 30
0.0
 11
66.2852
 21
64.4137
 31
0.0
  0
LINE
  8
0
 62
     0
 10
66.2852
 20
64.4137
 30
0.0
 11
65.4375
 21
64.3791
 31
0.0
  0
LINE
  8
0
 62
     0
 10
65.4375
 20
64.3791
 30
0.0
 11
64.3103
 21
64.3682
 31
0.0
  0
LINE
  8
0
 62
     0
 10
64.3103
 20
64.3682
 30
0.0
 11
63.2135
 21
64.5375
 31
0.0
  0
LINE
  8
0
 62
     0
 10
63.2135
 20
64.5375
 30
0.0
 11
62.4032
 21
64.8808
 31
0.0
  0
LINE
  8
0
 62
     0
 10
62.4032
 20
64.8808
 30
0.0
 11
62.1743
 21
65.049
 31
0.0
  0
LINE
  8
0
 62
     0
 10
62.1743
 20
65.049
 30
0.0
 11
62.0737
 21
65.1235
 31
0.0
  0
LINE
  8
0
 62
     0
 10
62.0737
 20
65.1235
 30
0.0
 11
61.6356
 21
65.5849
 31
0.0
  0
LINE
  8
0
 62
     0
 10
61.6356
 20
65.5849
 30
0.0
 11
61.2112
 21
66.1088
 31
0.0
  0
LINE
  8
0
 62
     0
 10
61.2112
 20
66.1088
 30
0.0
 11
61.1188
 21
66.2122
 31
0.0
  0
LINE
  8
0
 62
     0
 10
26.3495
 20
73.4783
 30
0.0
 11
25.9691
 21
73.4963
 31
0.0
  0
LINE
  8
0
 62
     0
 10
25.9691
 20
73.4963
 30
0.0
 11
24.073
 21
73.4632
 31
0.0
  0
LINE
  8
0
 62
     0
 10
24.073
 20
73.4632
 30
0.0
 11
22.2016
 21
73.116
 31
0.0
  0
LINE
  8
0
 62
     0
 10
22.2016
 20
73.116
 30
0.0
 11
21.8364
 21
72.9767
 31
0.0
  0
LINE
  8
0
 62
     0
 10
21.8364
 20
72.9767
 30
0.0
 11
21.6324
 21
72.8998
 31
0.0
  0
LINE
  8
0
 62
     0
 10
21.6324
 20
72.8998
 30
0.0
 11
20.8015
 21
72.2905
 31
0.0
  0
LINE
  8
0
 62
     0
 10
20.8015
 20
72.2905
 30
0.0
 11
20.3219
 21
71.4058
 31
0.0
  0
LINE
  8
0
 62
     0
 10
20.3219
 20
71.4058
 30
0.0
 11
20.2958
 21
71.1909
 31
0.0
  0
LINE
  8
0
 62
     0
 10
20.2958
 20
71.1909
 30
0.0
 11
20.2572
 21
70.896
 31
0.0
  0
LINE
  8
0
 62
     0
 10
20.2572
 20
70.896
 30
0.0
 11
20.1304
 21
67.9083
 31
0.0
  0
LINE
  8
0
 62
     0
 10
20.1304
 20
67.9083
 30
0.0
 11
20.1538
 21
67.612
 31
0.0
  0
LINE
  8
0
 62
     0
 10
20.1538
 20
67.612
 30
0.0
 11
20.1745
 21
67.3255
 31
0.0
  0
LINE
  8
0
 62
     0
 10
20.1745
 20
67.3255
 30
0.0
 11
20.4515
 21
66.4778
 31
0.0
  0
LINE
  8
0
 62
     0
 10
20.4515
 20
66.4778
 30
0.0
 11
21.1019
 21
65.6015
 31
0.0
  0
LINE
  8
0
 62
     0
 10
21.1019
 20
65.6015
 30
0.0
 11
22.0141
 21
65.0406
 31
0.0
  0
LINE
  8
0
 62
     0
 10
22.0141
 20
65.0406
 30
0.0
 11
22.8327
 21
64.849
 31
0.0
  0
LINE
  8
0
 62
     0
 10
22.8327
 20
64.849
 30
0.0
 11
23.1042
 21
64.8518
 31
0.0
  0
LINE
  8
0
 62
     0
 10
23.1042
 20
64.8518
 30
0.0
 11
23.3922
 21
64.8561
 31
0.0
  0
LINE
  8
0
 62
     0
 10
23.3922
 20
64.8561
 30
0.0
 11
24.2562
 21
65.1122
 31
0.0
  0
LINE
  8
0
 62
     0
 10
24.2562
 20
65.1122
 30
0.0
 11
25.2801
 21
65.7765
 31
0.0
  0
LINE
  8
0
 62
     0
 10
25.2801
 20
65.7765
 30
0.0
 11
26.0242
 21
66.7233
 31
0.0
  0
LINE
  8
0
 62
     0
 10
26.0242
 20
66.7233
 30
0.0
 11
26.3233
 21
67.5488
 31
0.0
  0
LINE
  8
0
 62
     0
 10
26.3233
 20
67.5488
 30
0.0
 11
26.3343
 21
67.8272
 31
0.0
  0
LINE
  8
0
 62
     0
 10
26.3343
 20
67.8272
 30
0.0
 11
26.3495
 21
68.2886
 31
0.0
  0
LINE
  8
0
 62
     0
 10
26.3495
 20
68.2886
 30
0.0
 11
26.3495
 21
72.1815
 31
0.0
  0
LINE
  8
0
 62
     0
 10
26.3495
 20
72.1815
 30
0.0
 11
26.3495
 21
73.4783
 31
0.0
  0
LINE
  8
0
 62
     0
 10
26.3977
 20
74.5285
 30
0.0
 11
26.4225
 21
74.8647
 31
0.0
  0
LINE
  8
0
 62
     0
 10
26.4225
 20
74.8647
 30
0.0
 11
26.4542
 21
75.8762
 31
0.0
  0
LINE
  8
0
 62
     0
 10
26.4542
 20
75.8762
 30
0.0
 11
26.3247
 21
77.1165
 31
0.0
  0
LINE
  8
0
 62
     0
 10
26.3247
 20
77.1165
 30
0.0
 11
25.8699
 21
78.2299
 31
0.0
  0
LINE
  8
0
 62
     0
 10
25.8699
 20
78.2299
 30
0.0
 11
25.2167
 21
78.9975
 31
0.0
  0
LINE
  8
0
 62
     0
 10
25.2167
 20
78.9975
 30
0.0
 11
24.9535
 21
79.1905
 31
0.0
  0
LINE
  8
0
 62
     0
 10
24.9535
 20
79.1905
 30
0.0
 11
25.163
 21
79.2208
 31
0.0
  0
LINE
  8
0
 62
     0
 10
25.163
 20
79.2208
 30
0.0
 11
25.8093
 21
79.2219
 31
0.0
  0
LINE
  8
0
 62
     0
 10
25.8093
 20
79.2219
 30
0.0
 11
26.632
 21
79.0787
 31
0.0
  0
LINE
  8
0
 62
     0
 10
26.632
 20
79.0787
 30
0.0
 11
27.3954
 21
78.7785
 31
0.0
  0
LINE
  8
0
 62
     0
 10
27.3954
 20
78.7785
 30
0.0
 11
28.0761
 21
78.3389
 31
0.0
  0
LINE
  8
0
 62
     0
 10
28.0761
 20
78.3389
 30
0.0
 11
28.6536
 21
77.7794
 31
0.0
  0
LINE
  8
0
 62
     0
 10
28.6536
 20
77.7794
 30
0.0
 11
29.1028
 21
77.1151
 31
0.0
  0
LINE
  8
0
 62
     0
 10
29.1028
 20
77.1151
 30
0.0
 11
29.4018
 21
76.3655
 31
0.0
  0
LINE
  8
0
 62
     0
 10
29.4018
 20
76.3655
 30
0.0
 11
29.519
 21
75.7534
 31
0.0
  0
LINE
  8
0
 62
     0
 10
29.519
 20
75.7534
 30
0.0
 11
29.5258
 21
75.5481
 31
0.0
  0
LINE
  8
0
 62
     0
 10
29.5258
 20
75.5481
 30
0.0
 11
29.5479
 21
74.8951
 31
0.0
  0
LINE
  8
0
 62
     0
 10
29.5479
 20
74.8951
 30
0.0
 11
29.5782
 21
68.3535
 31
0.0
  0
LINE
  8
0
 62
     0
 10
29.5782
 20
68.3535
 30
0.0
 11
29.581
 21
67.6988
 31
0.0
  0
LINE
  8
0
 62
     0
 10
29.581
 20
67.6988
 30
0.0
 11
29.581
 21
67.4014
 31
0.0
  0
LINE
  8
0
 62
     0
 10
29.581
 20
67.4014
 30
0.0
 11
29.6416
 21
66.5043
 31
0.0
  0
LINE
  8
0
 62
     0
 10
29.6416
 20
66.5043
 30
0.0
 11
29.9213
 21
65.8343
 31
0.0
  0
LINE
  8
0
 62
     0
 10
29.9213
 20
65.8343
 30
0.0
 11
30.5718
 21
65.5313
 31
0.0
  0
LINE
  8
0
 62
     0
 10
30.5718
 20
65.5313
 30
0.0
 11
31.4509
 21
65.4445
 31
0.0
  0
LINE
  8
0
 62
     0
 10
31.4509
 20
65.4445
 30
0.0
 11
31.7459
 21
65.4346
 31
0.0
  0
LINE
  8
0
 62
     0
 10
31.7459
 20
65.4346
 30
0.0
 11
31.7831
 21
65.4346
 31
0.0
  0
LINE
  8
0
 62
     0
 10
31.7831
 20
65.4346
 30
0.0
 11
32.1841
 21
65.3948
 31
0.0
  0
LINE
  8
0
 62
     0
 10
32.1841
 20
65.3948
 30
0.0
 11
32.2323
 21
65.3891
 31
0.0
  0
LINE
  8
0
 62
     0
 10
32.2323
 20
65.3891
 30
0.0
 11
32.2323
 21
65.1633
 31
0.0
  0
LINE
  8
0
 62
     0
 10
32.2323
 20
65.1633
 30
0.0
 11
32.2323
 21
64.6536
 31
0.0
  0
LINE
  8
0
 62
     0
 10
32.2323
 20
64.6536
 30
0.0
 11
32.2323
 21
64.4825
 31
0.0
  0
LINE
  8
0
 62
     0
 10
32.2323
 20
64.4825
 30
0.0
 11
31.7707
 21
64.3862
 31
0.0
  0
LINE
  8
0
 62
     0
 10
31.7707
 20
64.3862
 30
0.0
 11
30.3499
 21
64.2719
 31
0.0
  0
LINE
  8
0
 62
     0
 10
30.3499
 20
64.2719
 30
0.0
 11
28.8093
 21
64.5213
 31
0.0
  0
LINE
  8
0
 62
     0
 10
28.8093
 20
64.5213
 30
0.0
 11
27.5498
 21
65.2558
 31
0.0
  0
LINE
  8
0
 62
     0
 10
27.5498
 20
65.2558
 30
0.0
 11
26.7257
 21
66.1582
 31
0.0
  0
LINE
  8
0
 62
     0
 10
26.7257
 20
66.1582
 30
0.0
 11
26.5121
 21
66.4972
 31
0.0
  0
LINE
  8
0
 62
     0
 10
26.5121
 20
66.4972
 30
0.0
 11
26.4708
 21
66.445
 31
0.0
  0
LINE
  8
0
 62
     0
 10
26.4708
 20
66.445
 30
0.0
 11
26.0766
 21
65.9391
 31
0.0
  0
LINE
  8
0
 62
     0
 10
26.0766
 20
65.9391
 30
0.0
 11
26.038
 21
65.8894
 31
0.0
  0
LINE
  8
0
 62
     0
 10
26.038
 20
65.8894
 30
0.0
 11
25.6728
 21
65.4332
 31
0.0
  0
LINE
  8
0
 62
     0
 10
25.6728
 20
65.4332
 30
0.0
 11
24.0454
 21
64.4839
 31
0.0
  0
LINE
  8
0
 62
     0
 10
24.0454
 20
64.4839
 30
0.0
 11
21.5263
 21
64.098
 31
0.0
  0
LINE
  8
0
 62
     0
 10
21.5263
 20
64.098
 30
0.0
 11
19.0486
 21
64.7086
 31
0.0
  0
LINE
  8
0
 62
     0
 10
19.0486
 20
64.7086
 30
0.0
 11
17.5093
 21
65.8001
 31
0.0
  0
LINE
  8
0
 62
     0
 10
17.5093
 20
65.8001
 30
0.0
 11
17.1855
 21
66.2876
 31
0.0
  0
LINE
  8
0
 62
     0
 10
17.1855
 20
66.2876
 30
0.0
 11
16.9223
 21
66.6821
 31
0.0
  0
LINE
  8
0
 62
     0
 10
16.9223
 20
66.6821
 30
0.0
 11
16.4841
 21
68.0956
 31
0.0
  0
LINE
  8
0
 62
     0
 10
16.4841
 20
68.0956
 30
0.0
 11
16.6247
 21
69.9604
 31
0.0
  0
LINE
  8
0
 62
     0
 10
16.6247
 20
69.9604
 30
0.0
 11
17.5534
 21
71.6926
 31
0.0
  0
LINE
  8
0
 62
     0
 10
17.5534
 20
71.6926
 30
0.0
 11
18.7524
 21
72.8292
 31
0.0
  0
LINE
  8
0
 62
     0
 10
18.7524
 20
72.8292
 30
0.0
 11
19.2154
 21
73.1023
 31
0.0
  0
LINE
  8
0
 62
     0
 10
19.2154
 20
73.1023
 30
0.0
 11
19.6164
 21
73.3393
 31
0.0
  0
LINE
  8
0
 62
     0
 10
19.6164
 20
73.3393
 30
0.0
 11
21.7344
 21
74.1384
 31
0.0
  0
LINE
  8
0
 62
     0
 10
21.7344
 20
74.1384
 30
0.0
 11
23.9696
 21
74.5035
 31
0.0
  0
LINE
  8
0
 62
     0
 10
23.9696
 20
74.5035
 30
0.0
 11
24.4312
 21
74.5229
 31
0.0
  0
LINE
  8
0
 62
     0
 10
24.4312
 20
74.5229
 30
0.0
 11
24.5897
 21
74.53
 31
0.0
  0
LINE
  8
0
 62
     0
 10
24.5897
 20
74.53
 30
0.0
 11
25.9457
 21
74.5285
 31
0.0
  0
LINE
  8
0
 62
     0
 10
25.9457
 20
74.5285
 30
0.0
 11
26.3977
 21
74.5285
 31
0.0
  0
LINE
  8
0
 62
     0
 10
36.7714
 20
78.4959
 30
0.0
 11
36.1777
 21
78.4959
 31
0.0
  0
LINE
  8
0
 62
     0
 10
36.1777
 20
78.4959
 30
0.0
 11
34.8423
 21
78.4959
 31
0.0
  0
LINE
  8
0
 62
     0
 10
34.8423
 20
78.4959
 30
0.0
 11
34.3986
 21
78.4959
 31
0.0
  0
LINE
  8
0
 62
     0
 10
34.3986
 20
78.4959
 30
0.0
 11
34.3986
 21
78.7245
 31
0.0
  0
LINE
  8
0
 62
     0
 10
34.3986
 20
78.7245
 30
0.0
 11
34.3986
 21
79.2371
 31
0.0
  0
LINE
  8
0
 62
     0
 10
34.3986
 20
79.2371
 30
0.0
 11
34.3986
 21
79.4067
 31
0.0
  0
LINE
  8
0
 62
     0
 10
34.3986
 20
79.4067
 30
0.0
 11
35.789
 21
79.4067
 31
0.0
  0
LINE
  8
0
 62
     0
 10
35.789
 20
79.4067
 30
0.0
 11
38.917
 21
79.4067
 31
0.0
  0
LINE
  8
0
 62
     0
 10
38.917
 20
79.4067
 30
0.0
 11
39.9602
 21
79.4067
 31
0.0
  0
LINE
  8
0
 62
     0
 10
39.9602
 20
79.4067
 30
0.0
 11
39.9602
 21
75.9396
 31
0.0
  0
LINE
  8
0
 62
     0
 10
39.9602
 20
75.9396
 30
0.0
 11
39.9602
 21
68.1359
 31
0.0
  0
LINE
  8
0
 62
     0
 10
39.9602
 20
68.1359
 30
0.0
 11
39.9602
 21
65.5341
 31
0.0
  0
LINE
  8
0
 62
     0
 10
39.9602
 20
65.5341
 30
0.0
 11
40.779
 21
65.5341
 31
0.0
  0
LINE
  8
0
 62
     0
 10
40.779
 20
65.5341
 30
0.0
 11
42.6212
 21
65.5341
 31
0.0
  0
LINE
  8
0
 62
     0
 10
42.6212
 20
65.5341
 30
0.0
 11
43.2361
 21
65.5341
 31
0.0
  0
LINE
  8
0
 62
     0
 10
43.2361
 20
65.5341
 30
0.0
 11
43.2361
 21
65.2582
 31
0.0
  0
LINE
  8
0
 62
     0
 10
43.2361
 20
65.2582
 30
0.0
 11
43.2361
 21
64.6384
 31
0.0
  0
LINE
  8
0
 62
     0
 10
43.2361
 20
64.6384
 30
0.0
 11
43.2361
 21
64.4317
 31
0.0
  0
LINE
  8
0
 62
     0
 10
43.2361
 20
64.4317
 30
0.0
 11
41.0531
 21
64.4317
 31
0.0
  0
LINE
  8
0
 62
     0
 10
41.0531
 20
64.4317
 30
0.0
 11
36.1417
 21
64.4317
 31
0.0
  0
LINE
  8
0
 62
     0
 10
36.1417
 20
64.4317
 30
0.0
 11
34.5047
 21
64.4317
 31
0.0
  0
LINE
  8
0
 62
     0
 10
34.5047
 20
64.4317
 30
0.0
 11
34.5047
 21
64.6963
 31
0.0
  0
LINE
  8
0
 62
     0
 10
34.5047
 20
64.6963
 30
0.0
 11
34.5047
 21
65.2914
 31
0.0
  0
LINE
  8
0
 62
     0
 10
34.5047
 20
65.2914
 30
0.0
 11
34.5047
 21
65.4886
 31
0.0
  0
LINE
  8
0
 62
     0
 10
34.5047
 20
65.4886
 30
0.0
 11
35.0711
 21
65.4886
 31
0.0
  0
LINE
  8
0
 62
     0
 10
35.0711
 20
65.4886
 30
0.0
 11
36.3456
 21
65.4886
 31
0.0
  0
LINE
  8
0
 62
     0
 10
36.3456
 20
65.4886
 30
0.0
 11
36.7714
 21
65.4886
 31
0.0
  0
LINE
  8
0
 62
     0
 10
36.7714
 20
65.4886
 30
0.0
 11
36.7714
 21
68.7405
 31
0.0
  0
LINE
  8
0
 62
     0
 10
36.7714
 20
68.7405
 30
0.0
 11
36.7714
 21
76.0582
 31
0.0
  0
LINE
  8
0
 62
     0
 10
36.7714
 20
76.0582
 30
0.0
 11
36.7714
 21
78.4959
 31
0.0
  0
LINE
  8
0
 62
     0
 10
40.5197
 20
76.7387
 30
0.0
 11
40.5349
 21
77.0393
 31
0.0
  0
LINE
  8
0
 62
     0
 10
40.5349
 20
77.0393
 30
0.0
 11
40.7307
 21
77.9307
 31
0.0
  0
LINE
  8
0
 62
     0
 10
40.7307
 20
77.9307
 30
0.0
 11
41.2281
 21
78.7799
 31
0.0
  0
LINE
  8
0
 62
     0
 10
41.2281
 20
78.7799
 30
0.0
 11
42.0247
 21
79.2925
 31
0.0
  0
LINE
  8
0
 62
     0
 10
42.0247
 20
79.2925
 30
0.0
 11
42.8569
 21
79.4755
 31
0.0
  0
LINE
  8
0
 62
     0
 10
42.8569
 20
79.4755
 30
0.0
 11
43.1352
 21
79.4812
 31
0.0
  0
LINE
  8
0
 62
     0
 10
43.1352
 20
79.4812
 30
0.0
 11
43.6122
 21
79.4921
 31
0.0
  0
LINE
  8
0
 62
     0
 10
43.6122
 20
79.4921
 30
0.0
 11
47.5548
 21
79.4893
 31
0.0
  0
LINE
  8
0
 62
     0
 10
47.5548
 20
79.4893
 30
0.0
 11
48.8692
 21
79.4893
 31
0.0
  0
LINE
  8
0
 62
     0
 10
48.8692
 20
79.4893
 30
0.0
 11
48.8692
 21
79.218
 31
0.0
  0
LINE
  8
0
 62
     0
 10
48.8692
 20
79.218
 30
0.0
 11
48.7303
 21
78.4006
 31
0.0
  0
LINE
  8
0
 62
     0
 10
48.7303
 20
78.4006
 30
0.0
 11
48.3154
 21
77.5575
 31
0.0
  0
LINE
  8
0
 62
     0
 10
48.3154
 20
77.5575
 30
0.0
 11
47.6331
 21
76.9994
 31
0.0
  0
LINE
  8
0
 62
     0
 10
47.6331
 20
76.9994
 30
0.0
 11
46.9304
 21
76.7789
 31
0.0
  0
LINE
  8
0
 62
     0
 10
46.9304
 20
76.7789
 30
0.0
 11
46.6933
 21
76.7662
 31
0.0
  0
LINE
  8
0
 62
     0
 10
46.6933
 20
76.7662
 30
0.0
 11
46.1836
 21
76.7401
 31
0.0
  0
LINE
  8
0
 62
     0
 10
46.1836
 20
76.7401
 30
0.0
 11
41.935
 21
76.7387
 31
0.0
  0
LINE
  8
0
 62
     0
 10
41.935
 20
76.7387
 30
0.0
 11
40.5197
 21
76.7387
 31
0.0
  0
LINE
  8
0
 62
     0
 10
50.8317
 20
79.3238
 30
0.0
 11
52.3946
 21
79.3238
 31
0.0
  0
LINE
  8
0
 62
     0
 10
52.3946
 20
79.3238
 30
0.0
 11
56.5697
 21
79.3238
 31
0.0
  0
LINE
  8
0
 62
     0
 10
56.5697
 20
79.3238
 30
0.0
 11
57.0865
 21
79.2992
 31
0.0
  0
LINE
  8
0
 62
     0
 10
57.0865
 20
79.2992
 30
0.0
 11
57.3045
 21
79.2896
 31
0.0
  0
LINE
  8
0
 62
     0
 10
57.3045
 20
79.2896
 30
0.0
 11
57.9533
 21
79.0924
 31
0.0
  0
LINE
  8
0
 62
     0
 10
57.9533
 20
79.0924
 30
0.0
 11
58.5833
 21
78.577
 31
0.0
  0
LINE
  8
0
 62
     0
 10
58.5833
 20
78.577
 30
0.0
 11
58.9841
 21
77.7723
 31
0.0
  0
LINE
  8
0
 62
     0
 10
58.9841
 20
77.7723
 30
0.0
 11
59.1467
 21
76.9676
 31
0.0
  0
LINE
  8
0
 62
     0
 10
59.1467
 20
76.9676
 30
0.0
 11
59.1619
 21
76.696
 31
0.0
  0
LINE
  8
0
 62
     0
 10
59.1619
 20
76.696
 30
0.0
 11
58.6123
 21
76.696
 31
0.0
  0
LINE
  8
0
 62
     0
 10
58.6123
 20
76.696
 30
0.0
 11
57.1458
 21
76.696
 31
0.0
  0
LINE
  8
0
 62
     0
 10
57.1458
 20
76.696
 30
0.0
 11
56.9641
 21
76.696
 31
0.0
  0
LINE
  8
0
 62
     0
 10
56.9641
 20
76.696
 30
0.0
 11
56.6621
 21
76.6974
 31
0.0
  0
LINE
  8
0
 62
     0
 10
56.6621
 20
76.6974
 30
0.0
 11
53.6512
 21
76.7073
 31
0.0
  0
LINE
  8
0
 62
     0
 10
53.6512
 20
76.7073
 30
0.0
 11
53.3506
 21
76.7196
 31
0.0
  0
LINE
  8
0
 62
     0
 10
53.3506
 20
76.7196
 30
0.0
 11
53.0751
 21
76.7306
 31
0.0
  0
LINE
  8
0
 62
     0
 10
53.0751
 20
76.7306
 30
0.0
 11
52.258
 21
76.9264
 31
0.0
  0
LINE
  8
0
 62
     0
 10
52.258
 20
76.9264
 30
0.0
 11
51.4696
 21
77.4375
 31
0.0
  0
LINE
  8
0
 62
     0
 10
51.4696
 20
77.4375
 30
0.0
 11
50.9916
 21
78.2408
 31
0.0
  0
LINE
  8
0
 62
     0
 10
50.9916
 20
78.2408
 30
0.0
 11
50.8303
 21
79.054
 31
0.0
  0
LINE
  8
0
 62
     0
 10
50.8303
 20
79.054
 30
0.0
 11
50.8317
 21
79.3238
 31
0.0
  0
LINE
  8
0
 62
     0
 10
16.4207
 20
79.2716
 30
0.0
 11
18.0468
 21
79.2716
 31
0.0
  0
LINE
  8
0
 62
     0
 10
18.0468
 20
79.2716
 30
0.0
 11
22.3835
 21
79.2674
 31
0.0
  0
LINE
  8
0
 62
     0
 10
22.3835
 20
79.2674
 30
0.0
 11
22.9251
 21
79.2371
 31
0.0
  0
LINE
  8
0
 62
     0
 10
22.9251
 20
79.2371
 30
0.0
 11
23.1166
 21
79.2275
 31
0.0
  0
LINE
  8
0
 62
     0
 10
23.1166
 20
79.2275
 30
0.0
 11
23.6871
 21
79.0152
 31
0.0
  0
LINE
  8
0
 62
     0
 10
23.6871
 20
79.0152
 30
0.0
 11
24.2521
 21
78.4807
 31
0.0
  0
LINE
  8
0
 62
     0
 10
24.2521
 20
78.4807
 30
0.0
 11
24.609
 21
77.6979
 31
0.0
  0
LINE
  8
0
 62
     0
 10
24.609
 20
77.6979
 30
0.0
 11
24.7385
 21
76.9729
 31
0.0
  0
LINE
  8
0
 62
     0
 10
24.7385
 20
76.9729
 30
0.0
 11
24.744
 21
76.7306
 31
0.0
  0
LINE
  8
0
 62
     0
 10
24.744
 20
76.7306
 30
0.0
 11
23.1731
 21
76.7306
 31
0.0
  0
LINE
  8
0
 62
     0
 10
23.1731
 20
76.7306
 30
0.0
 11
18.9825
 21
76.7334
 31
0.0
  0
LINE
  8
0
 62
     0
 10
18.9825
 20
76.7334
 30
0.0
 11
18.4616
 21
76.7623
 31
0.0
  0
LINE
  8
0
 62
     0
 10
18.4616
 20
76.7623
 30
0.0
 11
18.2383
 21
76.7747
 31
0.0
  0
LINE
  8
0
 62
     0
 10
18.2383
 20
76.7747
 30
0.0
 11
17.5796
 21
76.9842
 31
0.0
  0
LINE
  8
0
 62
     0
 10
17.5796
 20
76.9842
 30
0.0
 11
16.9444
 21
77.5063
 31
0.0
  0
LINE
  8
0
 62
     0
 10
16.9444
 20
77.5063
 30
0.0
 11
16.5571
 21
78.2835
 31
0.0
  0
LINE
  8
0
 62
     0
 10
16.5571
 20
78.2835
 30
0.0
 11
16.4235
 21
79.025
 31
0.0
  0
LINE
  8
0
 62
     0
 10
16.4235
 20
79.025
 30
0.0
 11
16.4207
 21
79.2716
 31
0.0
  0
LINE
  8
0
 62
     0
 10
13.4717
 20
82.3062
 30
0.0
 11
69.7219
 21
82.3062
 31
0.0
  0
LINE
  8
0
 62
     0
 10
69.7219
 20
82.3062
 30
0.0
 11
69.7219
 21
55.5502
 31
0.0
  0
LINE
  8
0
 62
     0
 10
69.7219
 20
55.5502
 30
0.0
 11
13.4717
 21
55.5502
 31
0.0
  0
LINE
  8
0
 62
     0
 10
13.4717
 20
55.5502
 30
0.0
 11
13.4717
 21
82.3062
 31
0.0
  0
LINE
  8
0
 62
     0
 10
13.8548
 20
59.5217
 30
0.0
 11
27.6269
 21
59.5217
 31
0.0
  0
LINE
  8
0
 62
     0
 10
30.1928
 20
58.0334
 30
0.0
 11
30.8295
 21
58.0334
 31
0.0
  0
LINE
  8
0
 62
     0
 10
30.8295
 20
58.0334
 30
0.0
 11
30.8295
 21
59.4554
 31
0.0
  0
LINE
  8
0
 62
     0
 10
30.8295
 20
59.4554
 30
0.0
 11
30.999
 21
59.4554
 31
0.0
  0
LINE
  8
0
 62
     0
 10
30.999
 20
59.4554
 30
0.0
 11
31.4758
 21
59.5009
 31
0.0
  0
LINE
  8
0
 62
     0
 10
31.4758
 20
59.5009
 30
0.0
 11
31.5075
 21
59.508
 31
0.0
  0
LINE
  8
0
 62
     0
 10
31.5075
 20
59.508
 30
0.0
 11
31.5598
 21
59.5231
 31
0.0
  0
LINE
  8
0
 62
     0
 10
31.5598
 20
59.5231
 30
0.0
 11
31.9774
 21
59.7958
 31
0.0
  0
LINE
  8
0
 62
     0
 10
31.9774
 20
59.7958
 30
0.0
 11
32.0091
 21
59.8343
 31
0.0
  0
LINE
  8
0
 62
     0
 10
32.0091
 20
59.8343
 30
0.0
 11
32.0394
 21
59.8745
 31
0.0
  0
LINE
  8
0
 62
     0
 10
32.0394
 20
59.8745
 30
0.0
 11
32.1923
 21
60.2837
 31
0.0
  0
LINE
  8
0
 62
     0
 10
32.1923
 20
60.2837
 30
0.0
 11
32.1923
 21
60.4203
 31
0.0
  0
LINE
  8
0
 62
     0
 10
32.1923
 20
60.4203
 30
0.0
 11
32.1923
 21
60.5564
 31
0.0
  0
LINE
  8
0
 62
     0
 10
32.1923
 20
60.5564
 30
0.0
 11
32.0752
 21
60.9272
 31
0.0
  0
LINE
  8
0
 62
     0
 10
32.0752
 20
60.9272
 30
0.0
 11
32.0518
 21
60.9632
 31
0.0
  0
LINE
  8
0
 62
     0
 10
32.0518
 20
60.9632
 30
0.0
 11
32.0284
 21
61.0016
 31
0.0
  0
LINE
  8
0
 62
     0
 10
32.0284
 20
61.0016
 30
0.0
 11
31.7073
 21
61.2757
 31
0.0
  0
LINE
  8
0
 62
     0
 10
31.7073
 20
61.2757
 30
0.0
 11
31.6673
 21
61.2909
 31
0.0
  0
LINE
  8
0
 62
     0
 10
31.6673
 20
61.2909
 30
0.0
 11
31.626
 21
61.3089
 31
0.0
  0
LINE
  8
0
 62
     0
 10
31.626
 20
61.3089
 30
0.0
 11
31.0596
 21
61.3943
 31
0.0
  0
LINE
  8
0
 62
     0
 10
31.0596
 20
61.3943
 30
0.0
 11
30.8708
 21
61.3943
 31
0.0
  0
LINE
  8
0
 62
     0
 10
30.8708
 20
61.3943
 30
0.0
 11
30.1928
 21
61.3943
 31
0.0
  0
LINE
  8
0
 62
     0
 10
30.1928
 20
61.3943
 30
0.0
 11
30.1928
 21
58.0334
 31
0.0
  0
LINE
  8
0
 62
     0
 10
30.8295
 20
60.7716
 30
0.0
 11
31.0114
 21
60.7716
 31
0.0
  0
LINE
  8
0
 62
     0
 10
31.0114
 20
60.7716
 30
0.0
 11
31.1133
 21
60.7716
 31
0.0
  0
LINE
  8
0
 62
     0
 10
31.1133
 20
60.7716
 30
0.0
 11
31.4041
 21
60.7162
 31
0.0
  0
LINE
  8
0
 62
     0
 10
31.4041
 20
60.7162
 30
0.0
 11
31.4234
 21
60.7053
 31
0.0
  0
LINE
  8
0
 62
     0
 10
31.4234
 20
60.7053
 30
0.0
 11
31.4482
 21
60.6901
 31
0.0
  0
LINE
  8
0
 62
     0
 10
31.4482
 20
60.6901
 30
0.0
 11
31.5736
 21
60.4876
 31
0.0
  0
LINE
  8
0
 62
     0
 10
31.5736
 20
60.4876
 30
0.0
 11
31.5736
 21
60.4203
 31
0.0
  0
LINE
  8
0
 62
     0
 10
31.5736
 20
60.4203
 30
0.0
 11
31.5736
 21
60.3733
 31
0.0
  0
LINE
  8
0
 62
     0
 10
31.5736
 20
60.3733
 30
0.0
 11
31.5254
 21
60.2425
 31
0.0
  0
LINE
  8
0
 62
     0
 10
31.5254
 20
60.2425
 30
0.0
 11
31.5171
 21
60.2287
 31
0.0
  0
LINE
  8
0
 62
     0
 10
31.5171
 20
60.2287
 30
0.0
 11
31.5088
 21
60.2149
 31
0.0
  0
LINE
  8
0
 62
     0
 10
31.5088
 20
60.2149
 30
0.0
 11
31.3876
 21
60.1183
 31
0.0
  0
LINE
  8
0
 62
     0
 10
31.3876
 20
60.1183
 30
0.0
 11
31.3724
 21
60.1116
 31
0.0
  0
LINE
  8
0
 62
     0
 10
31.3724
 20
60.1116
 30
0.0
 11
31.3559
 21
60.1059
 31
0.0
  0
LINE
  8
0
 62
     0
 10
31.3559
 20
60.1059
 30
0.0
 11
31.1147
 21
60.0798
 31
0.0
  0
LINE
  8
0
 62
     0
 10
31.1147
 20
60.0798
 30
0.0
 11
31.0348
 21
60.0798
 31
0.0
  0
LINE
  8
0
 62
     0
 10
31.0348
 20
60.0798
 30
0.0
 11
30.8295
 21
60.0798
 31
0.0
  0
LINE
  8
0
 62
     0
 10
30.8295
 20
60.0798
 30
0.0
 11
30.8295
 21
60.7716
 31
0.0
  0
LINE
  8
0
 62
     0
 10
33.5263
 20
58.0334
 30
0.0
 11
35.3631
 21
58.0334
 31
0.0
  0
LINE
  8
0
 62
     0
 10
35.3631
 20
58.0334
 30
0.0
 11
35.3631
 21
58.6588
 31
0.0
  0
LINE
  8
0
 62
     0
 10
35.3631
 20
58.6588
 30
0.0
 11
34.1643
 21
58.6588
 31
0.0
  0
LINE
  8
0
 62
     0
 10
34.1643
 20
58.6588
 30
0.0
 11
34.1643
 21
59.545
 31
0.0
  0
LINE
  8
0
 62
     0
 10
34.1643
 20
59.545
 30
0.0
 11
35.3631
 21
59.545
 31
0.0
  0
LINE
  8
0
 62
     0
 10
35.3631
 20
59.545
 30
0.0
 11
35.3631
 21
60.1624
 31
0.0
  0
LINE
  8
0
 62
     0
 10
35.3631
 20
60.1624
 30
0.0
 11
34.1643
 21
60.1624
 31
0.0
  0
LINE
  8
0
 62
     0
 10
34.1643
 20
60.1624
 30
0.0
 11
34.1643
 21
60.7688
 31
0.0
  0
LINE
  8
0
 62
     0
 10
34.1643
 20
60.7688
 30
0.0
 11
35.3631
 21
60.7688
 31
0.0
  0
LINE
  8
0
 62
     0
 10
35.3631
 20
60.7688
 30
0.0
 11
35.3631
 21
61.3943
 31
0.0
  0
LINE
  8
0
 62
     0
 10
35.3631
 20
61.3943
 30
0.0
 11
33.5263
 21
61.3943
 31
0.0
  0
LINE
  8
0
 62
     0
 10
33.5263
 20
61.3943
 30
0.0
 11
33.5263
 21
58.0334
 31
0.0
  0
LINE
  8
0
 62
     0
 10
36.7026
 20
58.0334
 30
0.0
 11
37.3394
 21
58.0334
 31
0.0
  0
LINE
  8
0
 62
     0
 10
37.3394
 20
58.0334
 30
0.0
 11
37.3394
 21
59.4554
 31
0.0
  0
LINE
  8
0
 62
     0
 10
37.3394
 20
59.4554
 30
0.0
 11
37.404
 21
59.4554
 31
0.0
  0
LINE
  8
0
 62
     0
 10
37.404
 20
59.4554
 30
0.0
 11
38.1579
 21
58.0334
 31
0.0
  0
LINE
  8
0
 62
     0
 10
38.1579
 20
58.0334
 30
0.0
 11
38.8606
 21
58.0334
 31
0.0
  0
LINE
  8
0
 62
     0
 10
38.8606
 20
58.0334
 30
0.0
 11
38.064
 21
59.5256
 31
0.0
  0
LINE
  8
0
 62
     0
 10
38.064
 20
59.5256
 30
0.0
 11
38.118
 21
59.545
 31
0.0
  0
LINE
  8
0
 62
     0
 10
38.118
 20
59.545
 30
0.0
 11
38.5163
 21
59.8262
 31
0.0
  0
LINE
  8
0
 62
     0
 10
38.5163
 20
59.8262
 30
0.0
 11
38.5424
 21
59.8632
 31
0.0
  0
LINE
  8
0
 62
     0
 10
38.5424
 20
59.8632
 30
0.0
 11
38.5685
 21
59.9006
 31
0.0
  0
LINE
  8
0
 62
     0
 10
38.5685
 20
59.9006
 30
0.0
 11
38.7022
 21
60.2904
 31
0.0
  0
LINE
  8
0
 62
     0
 10
38.7022
 20
60.2904
 30
0.0
 11
38.7022
 21
60.4203
 31
0.0
  0
LINE
  8
0
 62
     0
 10
38.7022
 20
60.4203
 30
0.0
 11
38.7022
 21
60.5564
 31
0.0
  0
LINE
  8
0
 62
     0
 10
38.7022
 20
60.5564
 30
0.0
 11
38.5808
 21
60.9244
 31
0.0
  0
LINE
  8
0
 62
     0
 10
38.5808
 20
60.9244
 30
0.0
 11
38.5561
 21
60.9632
 31
0.0
  0
LINE
  8
0
 62
     0
 10
38.5561
 20
60.9632
 30
0.0
 11
38.5329
 21
61.003
 31
0.0
  0
LINE
  8
0
 62
     0
 10
38.5329
 20
61.003
 30
0.0
 11
38.2171
 21
61.2814
 31
0.0
  0
LINE
  8
0
 62
     0
 10
38.2171
 20
61.2814
 30
0.0
 11
38.1773
 21
61.298
 31
0.0
  0
LINE
  8
0
 62
     0
 10
38.1773
 20
61.298
 30
0.0
 11
38.137
 21
61.3145
 31
0.0
  0
LINE
  8
0
 62
     0
 10
38.137
 20
61.3145
 30
0.0
 11
37.5694
 21
61.3943
 31
0.0
  0
LINE
  8
0
 62
     0
 10
37.5694
 20
61.3943
 30
0.0
 11
37.3807
 21
61.3943
 31
0.0
  0
LINE
  8
0
 62
     0
 10
37.3807
 20
61.3943
 30
0.0
 11
36.7026
 21
61.3943
 31
0.0
  0
LINE
  8
0
 62
     0
 10
36.7026
 20
61.3943
 30
0.0
 11
36.7026
 21
58.0334
 31
0.0
  0
LINE
  8
0
 62
     0
 10
37.3394
 20
60.7716
 30
0.0
 11
37.5172
 21
60.7716
 31
0.0
  0
LINE
  8
0
 62
     0
 10
37.5172
 20
60.7716
 30
0.0
 11
37.6054
 21
60.7716
 31
0.0
  0
LINE
  8
0
 62
     0
 10
37.6054
 20
60.7716
 30
0.0
 11
37.8562
 21
60.7413
 31
0.0
  0
LINE
  8
0
 62
     0
 10
37.8562
 20
60.7413
 30
0.0
 11
37.8725
 21
60.7342
 31
0.0
  0
LINE
  8
0
 62
     0
 10
37.8725
 20
60.7342
 30
0.0
 11
37.8876
 21
60.7289
 31
0.0
  0
LINE
  8
0
 62
     0
 10
37.8876
 20
60.7289
 30
0.0
 11
38.016
 21
60.6323
 31
0.0
  0
LINE
  8
0
 62
     0
 10
38.016
 20
60.6323
 30
0.0
 11
38.027
 21
60.6171
 31
0.0
  0
LINE
  8
0
 62
     0
 10
38.027
 20
60.6171
 30
0.0
 11
38.0351
 21
60.6048
 31
0.0
  0
LINE
  8
0
 62
     0
 10
38.0351
 20
60.6048
 30
0.0
 11
38.0834
 21
60.4711
 31
0.0
  0
LINE
  8
0
 62
     0
 10
38.0834
 20
60.4711
 30
0.0
 11
38.0834
 21
60.4255
 31
0.0
  0
LINE
  8
0
 62
     0
 10
38.0834
 20
60.4255
 30
0.0
 11
38.0834
 21
60.3596
 31
0.0
  0
LINE
  8
0
 62
     0
 10
38.0834
 20
60.3596
 30
0.0
 11
37.9857
 21
60.1733
 31
0.0
  0
LINE
  8
0
 62
     0
 10
37.9857
 20
60.1733
 30
0.0
 11
37.9663
 21
60.1581
 31
0.0
  0
LINE
  8
0
 62
     0
 10
37.9663
 20
60.1581
 30
0.0
 11
37.9469
 21
60.1458
 31
0.0
  0
LINE
  8
0
 62
     0
 10
37.9469
 20
60.1458
 30
0.0
 11
37.641
 21
60.0798
 31
0.0
  0
LINE
  8
0
 62
     0
 10
37.641
 20
60.0798
 30
0.0
 11
37.5405
 21
60.0798
 31
0.0
  0
LINE
  8
0
 62
     0
 10
37.5405
 20
60.0798
 30
0.0
 11
37.3394
 21
60.0798
 31
0.0
  0
LINE
  8
0
 62
     0
 10
37.3394
 20
60.0798
 30
0.0
 11
37.3394
 21
60.7716
 31
0.0
  0
LINE
  8
0
 62
     0
 10
40.0886
 20
58.0334
 30
0.0
 11
40.725
 21
58.0334
 31
0.0
  0
LINE
  8
0
 62
     0
 10
40.725
 20
58.0334
 30
0.0
 11
40.725
 21
59.545
 31
0.0
  0
LINE
  8
0
 62
     0
 10
40.725
 20
59.545
 30
0.0
 11
41.7558
 21
59.545
 31
0.0
  0
LINE
  8
0
 62
     0
 10
41.7558
 20
59.545
 30
0.0
 11
41.7558
 21
60.1624
 31
0.0
  0
LINE
  8
0
 62
     0
 10
41.7558
 20
60.1624
 30
0.0
 11
40.725
 21
60.1624
 31
0.0
  0
LINE
  8
0
 62
     0
 10
40.725
 20
60.1624
 30
0.0
 11
40.725
 21
60.7755
 31
0.0
  0
LINE
  8
0
 62
     0
 10
40.725
 20
60.7755
 30
0.0
 11
41.7558
 21
60.7755
 31
0.0
  0
LINE
  8
0
 62
     0
 10
41.7558
 20
60.7755
 30
0.0
 11
41.7558
 21
61.3943
 31
0.0
  0
LINE
  8
0
 62
     0
 10
41.7558
 20
61.3943
 30
0.0
 11
40.0886
 21
61.3943
 31
0.0
  0
LINE
  8
0
 62
     0
 10
40.0886
 20
61.3943
 30
0.0
 11
40.0886
 21
58.0334
 31
0.0
  0
LINE
  8
0
 62
     0
 10
43.0057
 20
59.3908
 30
0.0
 11
43.0057
 21
59.1785
 31
0.0
  0
LINE
  8
0
 62
     0
 10
43.0057
 20
59.1785
 30
0.0
 11
43.1024
 21
58.5805
 31
0.0
  0
LINE
  8
0
 62
     0
 10
43.1024
 20
58.5805
 30
0.0
 11
43.1228
 21
58.5378
 31
0.0
  0
LINE
  8
0
 62
     0
 10
43.1228
 20
58.5378
 30
0.0
 11
43.1408
 21
58.4962
 31
0.0
  0
LINE
  8
0
 62
     0
 10
43.1408
 20
58.4962
 30
0.0
 11
43.4647
 21
58.1448
 31
0.0
  0
LINE
  8
0
 62
     0
 10
43.4647
 20
58.1448
 30
0.0
 11
43.5116
 21
58.1159
 31
0.0
  0
LINE
  8
0
 62
     0
 10
43.5116
 20
58.1159
 30
0.0
 11
43.5557
 21
58.0884
 31
0.0
  0
LINE
  8
0
 62
     0
 10
43.5557
 20
58.0884
 30
0.0
 11
43.9967
 21
57.9494
 31
0.0
  0
LINE
  8
0
 62
     0
 10
43.9967
 20
57.9494
 30
0.0
 11
44.1441
 21
57.9494
 31
0.0
  0
LINE
  8
0
 62
     0
 10
44.1441
 20
57.9494
 30
0.0
 11
44.2666
 21
57.9494
 31
0.0
  0
LINE
  8
0
 62
     0
 10
44.2666
 20
57.9494
 30
0.0
 11
44.6003
 21
58.0224
 31
0.0
  0
LINE
  8
0
 62
     0
 10
44.6003
 20
58.0224
 30
0.0
 11
44.6359
 21
58.0376
 31
0.0
  0
LINE
  8
0
 62
     0
 10
44.6359
 20
58.0376
 30
0.0
 11
44.6705
 21
58.0528
 31
0.0
  0
LINE
  8
0
 62
     0
 10
44.6705
 20
58.0528
 30
0.0
 11
44.9778
 21
58.2771
 31
0.0
  0
LINE
  8
0
 62
     0
 10
44.9778
 20
58.2771
 30
0.0
 11
45.0053
 21
58.3075
 31
0.0
  0
LINE
  8
0
 62
     0
 10
45.0053
 20
58.3075
 30
0.0
 11
45.0314
 21
58.3392
 31
0.0
  0
LINE
  8
0
 62
     0
 10
45.0314
 20
58.3392
 30
0.0
 11
45.2162
 21
58.6564
 31
0.0
  0
LINE
  8
0
 62
     0
 10
45.2162
 20
58.6564
 30
0.0
 11
45.2258
 21
58.6878
 31
0.0
  0
LINE
  8
0
 62
     0
 10
45.2258
 20
58.6878
 30
0.0
 11
45.2342
 21
58.7209
 31
0.0
  0
LINE
  8
0
 62
     0
 10
45.2342
 20
58.7209
 30
0.0
 11
45.2822
 21
59.224
 31
0.0
  0
LINE
  8
0
 62
     0
 10
45.2822
 20
59.224
 30
0.0
 11
45.2822
 21
59.3908
 31
0.0
  0
LINE
  8
0
 62
     0
 10
45.2822
 20
59.3908
 30
0.0
 11
45.2822
 21
61.3943
 31
0.0
  0
LINE
  8
0
 62
     0
 10
45.2822
 20
61.3943
 30
0.0
 11
44.6401
 21
61.3943
 31
0.0
  0
LINE
  8
0
 62
     0
 10
44.6401
 20
61.3943
 30
0.0
 11
44.6401
 21
59.3027
 31
0.0
  0
LINE
  8
0
 62
     0
 10
44.6401
 20
59.3027
 30
0.0
 11
44.6401
 21
59.188
 31
0.0
  0
LINE
  8
0
 62
     0
 10
44.6401
 20
59.188
 30
0.0
 11
44.6017
 21
58.8641
 31
0.0
  0
LINE
  8
0
 62
     0
 10
44.6017
 20
58.8641
 30
0.0
 11
44.5932
 21
58.8437
 31
0.0
  0
LINE
  8
0
 62
     0
 10
44.5932
 20
58.8437
 30
0.0
 11
44.5851
 21
58.8243
 31
0.0
  0
LINE
  8
0
 62
     0
 10
44.5851
 20
58.8243
 30
0.0
 11
44.4444
 21
58.6588
 31
0.0
  0
LINE
  8
0
 62
     0
 10
44.4444
 20
58.6588
 30
0.0
 11
44.4253
 21
58.6451
 31
0.0
  0
LINE
  8
0
 62
     0
 10
44.4253
 20
58.6451
 30
0.0
 11
44.4031
 21
58.6327
 31
0.0
  0
LINE
  8
0
 62
     0
 10
44.4031
 20
58.6327
 30
0.0
 11
44.2006
 21
58.5668
 31
0.0
  0
LINE
  8
0
 62
     0
 10
44.2006
 20
58.5668
 30
0.0
 11
44.1343
 21
58.5668
 31
0.0
  0
LINE
  8
0
 62
     0
 10
44.1343
 20
58.5668
 30
0.0
 11
44.0655
 21
58.5668
 31
0.0
  0
LINE
  8
0
 62
     0
 10
44.0655
 20
58.5668
 30
0.0
 11
43.8767
 21
58.626
 31
0.0
  0
LINE
  8
0
 62
     0
 10
43.8767
 20
58.626
 30
0.0
 11
43.8587
 21
58.637
 31
0.0
  0
LINE
  8
0
 62
     0
 10
43.8587
 20
58.637
 30
0.0
 11
43.8397
 21
58.6493
 31
0.0
  0
LINE
  8
0
 62
     0
 10
43.8397
 20
58.6493
 30
0.0
 11
43.7074
 21
58.8038
 31
0.0
  0
LINE
  8
0
 62
     0
 10
43.7074
 20
58.8038
 30
0.0
 11
43.6989
 21
58.8229
 31
0.0
  0
LINE
  8
0
 62
     0
 10
43.6989
 20
58.8229
 30
0.0
 11
43.6908
 21
58.8423
 31
0.0
  0
LINE
  8
0
 62
     0
 10
43.6908
 20
58.8423
 30
0.0
 11
43.6481
 21
59.1273
 31
0.0
  0
LINE
  8
0
 62
     0
 10
43.6481
 20
59.1273
 30
0.0
 11
43.6481
 21
59.2212
 31
0.0
  0
LINE
  8
0
 62
     0
 10
43.6481
 20
59.2212
 30
0.0
 11
43.6481
 21
61.3943
 31
0.0
  0
LINE
  8
0
 62
     0
 10
43.6481
 20
61.3943
 30
0.0
 11
43.0057
 21
61.3943
 31
0.0
  0
LINE
  8
0
 62
     0
 10
43.0057
 20
61.3943
 30
0.0
 11
43.0057
 21
59.3908
 31
0.0
  0
LINE
  8
0
 62
     0
 10
46.4714
 20
58.0334
 30
0.0
 11
47.0944
 21
58.0334
 31
0.0
  0
LINE
  8
0
 62
     0
 10
47.0944
 20
58.0334
 30
0.0
 11
47.4652
 21
60.1543
 31
0.0
  0
LINE
  8
0
 62
     0
 10
47.4652
 20
60.1543
 30
0.0
 11
48.1722
 21
58.0334
 31
0.0
  0
LINE
  8
0
 62
     0
 10
48.1722
 20
58.0334
 30
0.0
 11
48.7345
 21
58.0334
 31
0.0
  0
LINE
  8
0
 62
     0
 10
48.7345
 20
58.0334
 30
0.0
 11
49.451
 21
60.1543
 31
0.0
  0
LINE
  8
0
 62
     0
 10
49.451
 20
60.1543
 30
0.0
 11
49.8066
 21
58.0334
 31
0.0
  0
LINE
  8
0
 62
     0
 10
49.8066
 20
58.0334
 30
0.0
 11
50.4254
 21
58.0334
 31
0.0
  0
LINE
  8
0
 62
     0
 10
50.4254
 20
58.0334
 30
0.0
 11
49.863
 21
61.3943
 31
0.0
  0
LINE
  8
0
 62
     0
 10
49.863
 20
61.3943
 30
0.0
 11
49.24
 21
61.3943
 31
0.0
  0
LINE
  8
0
 62
     0
 10
49.24
 20
61.3943
 30
0.0
 11
48.4572
 21
59.049
 31
0.0
  0
LINE
  8
0
 62
     0
 10
48.4572
 20
59.049
 30
0.0
 11
47.6705
 21
61.3943
 31
0.0
  0
LINE
  8
0
 62
     0
 10
47.6705
 20
61.3943
 30
0.0
 11
47.0531
 21
61.3943
 31
0.0
  0
LINE
  8
0
 62
     0
 10
47.0531
 20
61.3943
 30
0.0
 11
46.4714
 21
58.0334
 31
0.0
  0
LINE
  8
0
 62
     0
 10
51.6516
 20
58.0334
 30
0.0
 11
53.4871
 21
58.0334
 31
0.0
  0
LINE
  8
0
 62
     0
 10
53.4871
 20
58.0334
 30
0.0
 11
53.4871
 21
58.6588
 31
0.0
  0
LINE
  8
0
 62
     0
 10
53.4871
 20
58.6588
 30
0.0
 11
52.2884
 21
58.6588
 31
0.0
  0
LINE
  8
0
 62
     0
 10
52.2884
 20
58.6588
 30
0.0
 11
52.2884
 21
59.545
 31
0.0
  0
LINE
  8
0
 62
     0
 10
52.2884
 20
59.545
 30
0.0
 11
53.4871
 21
59.545
 31
0.0
  0
LINE
  8
0
 62
     0
 10
53.4871
 20
59.545
 30
0.0
 11
53.4871
 21
60.1624
 31
0.0
  0
LINE
  8
0
 62
     0
 10
53.4871
 20
60.1624
 30
0.0
 11
52.2884
 21
60.1624
 31
0.0
  0
LINE
  8
0
 62
     0
 10
52.2884
 20
60.1624
 30
0.0
 11
52.2884
 21
60.7688
 31
0.0
  0
LINE
  8
0
 62
     0
 10
52.2884
 20
60.7688
 30
0.0
 11
53.4871
 21
60.7688
 31
0.0
  0
LINE
  8
0
 62
     0
 10
53.4871
 20
60.7688
 30
0.0
 11
53.4871
 21
61.3943
 31
0.0
  0
LINE
  8
0
 62
     0
 10
53.4871
 20
61.3943
 30
0.0
 11
51.6516
 21
61.3943
 31
0.0
  0
LINE
  8
0
 62
     0
 10
51.6516
 20
61.3943
 30
0.0
 11
51.6516
 21
58.0334
 31
0.0
  0
LINE
  8
0
 62
     0
 10
55.7664
 20
59.5217
 30
0.0
 11
69.5385
 21
59.5217
 31
0.0
  0
LINE
  8
0
 62
     0
 10
0
 20
0.283876
 30
0.0
 11
0
 21
0.887458
 31
0.0
  0
LINE
  8
0
 62
     0
 10
0
 20
0.887458
 30
0.0
 11
0.94947
 21
0.887458
 31
0.0
  0
LINE
  8
0
 62
     0
 10
0.94947
 20
0.887458
 30
0.0
 11
1.07763
 21
0.887458
 31
0.0
  0
LINE
  8
0
 62
     0
 10
1.07763
 20
0.887458
 30
0.0
 11
1.43729
 21
1.02113
 31
0.0
  0
LINE
  8
0
 62
     0
 10
1.43729
 20
1.02113
 30
0.0
 11
1.4621
 21
1.04731
 31
0.0
  0
LINE
  8
0
 62
     0
 10
1.4621
 20
1.04731
 30
0.0
 11
1.48553
 21
1.07487
 31
0.0
  0
LINE
  8
0
 62
     0
 10
1.48553
 20
1.07487
 30
0.0
 11
1.60404
 21
1.52962
 31
0.0
  0
LINE
  8
0
 62
     0
 10
1.60404
 20
1.52962
 30
0.0
 11
1.60404
 21
1.67983
 31
0.0
  0
LINE
  8
0
 62
     0
 10
1.60404
 20
1.67983
 30
0.0
 11
1.60404
 21
11.3344
 31
0.0
  0
LINE
  8
0
 62
     0
 10
1.60404
 20
11.3344
 30
0.0
 11
1.60404
 21
11.4639
 31
0.0
  0
LINE
  8
0
 62
     0
 10
1.60404
 20
11.4639
 30
0.0
 11
1.47175
 21
11.8318
 31
0.0
  0
LINE
  8
0
 62
     0
 10
1.47175
 20
11.8318
 30
0.0
 11
1.44556
 21
11.8525
 31
0.0
  0
LINE
  8
0
 62
     0
 10
1.44556
 20
11.8525
 30
0.0
 11
1.41938
 21
11.8746
 31
0.0
  0
LINE
  8
0
 62
     0
 10
1.41938
 20
11.8746
 30
0.0
 11
0.94809
 21
11.9779
 31
0.0
  0
LINE
  8
0
 62
     0
 10
0.94809
 20
11.9779
 30
0.0
 11
0.792371
 21
11.9779
 31
0.0
  0
LINE
  8
0
 62
     0
 10
0.792371
 20
11.9779
 30
0.0
 11
0.0372071
 21
11.9779
 31
0.0
  0
LINE
  8
0
 62
     0
 10
0.0372071
 20
11.9779
 30
0.0
 11
0.0372071
 21
12.5443
 31
0.0
  0
LINE
  8
0
 62
     0
 10
0.0372071
 20
12.5443
 30
0.0
 11
5.00228
 21
12.5443
 31
0.0
  0
LINE
  8
0
 62
     0
 10
5.00228
 20
12.5443
 30
0.0
 11
10.1672
 21
5.48185
 31
0.0
  0
LINE
  8
0
 62
     0
 10
10.1672
 20
5.48185
 30
0.0
 11
10.1672
 21
11.0657
 31
0.0
  0
LINE
  8
0
 62
     0
 10
10.1672
 20
11.0657
 30
0.0
 11
10.1672
 21
11.2503
 31
0.0
  0
LINE
  8
0
 62
     0
 10
10.1672
 20
11.2503
 30
0.0
 11
10.0252
 21
11.774
 31
0.0
  0
LINE
  8
0
 62
     0
 10
10.0252
 20
11.774
 30
0.0
 11
9.99765
 21
11.8015
 31
0.0
  0
LINE
  8
0
 62
     0
 10
9.99765
 20
11.8015
 30
0.0
 11
9.96872
 21
11.8305
 31
0.0
  0
LINE
  8
0
 62
     0
 10
9.96872
 20
11.8305
 30
0.0
 11
9.43818
 21
11.9779
 31
0.0
  0
LINE
  8
0
 62
     0
 10
9.43818
 20
11.9779
 30
0.0
 11
9.26179
 21
11.9779
 31
0.0
  0
LINE
  8
0
 62
     0
 10
9.26179
 20
11.9779
 30
0.0
 11
8.46942
 21
11.9779
 31
0.0
  0
LINE
  8
0
 62
     0
 10
8.46942
 20
11.9779
 30
0.0
 11
8.46942
 21
12.5443
 31
0.0
  0
LINE
  8
0
 62
     0
 10
8.46942
 20
12.5443
 30
0.0
 11
12.3927
 21
12.5443
 31
0.0
  0
LINE
  8
0
 62
     0
 10
12.3927
 20
12.5443
 30
0.0
 11
12.3927
 21
11.9779
 31
0.0
  0
LINE
  8
0
 62
     0
 10
12.3927
 20
11.9779
 30
0.0
 11
11.6761
 21
11.9779
 31
0.0
  0
LINE
  8
0
 62
     0
 10
11.6761
 20
11.9779
 30
0.0
 11
11.5163
 21
11.9779
 31
0.0
  0
LINE
  8
0
 62
     0
 10
11.5163
 20
11.9779
 30
0.0
 11
11.0698
 21
11.8222
 31
0.0
  0
LINE
  8
0
 62
     0
 10
11.0698
 20
11.8222
 30
0.0
 11
11.0409
 21
11.7905
 31
0.0
  0
LINE
  8
0
 62
     0
 10
11.0409
 20
11.7905
 30
0.0
 11
11.0119
 21
11.7588
 31
0.0
  0
LINE
  8
0
 62
     0
 10
11.0119
 20
11.7588
 30
0.0
 11
10.8645
 21
11.2393
 31
0.0
  0
LINE
  8
0
 62
     0
 10
10.8645
 20
11.2393
 30
0.0
 11
10.8645
 21
11.0657
 31
0.0
  0
LINE
  8
0
 62
     0
 10
10.8645
 20
11.0657
 30
0.0
 11
10.8645
 21
0.00137804
 31
0.0
  0
LINE
  8
0
 62
     0
 10
10.8645
 20
0.00137804
 30
0.0
 11
10.3587
 21
0.00137804
 31
0.0
  0
LINE
  8
0
 62
     0
 10
10.3587
 20
0.00137804
 30
0.0
 11
2.33853
 21
11.0298
 31
0.0
  0
LINE
  8
0
 62
     0
 10
2.33853
 20
11.0298
 30
0.0
 11
2.33853
 21
1.55994
 31
0.0
  0
LINE
  8
0
 62
     0
 10
2.33853
 20
1.55994
 30
0.0
 11
2.33853
 21
1.43591
 31
0.0
  0
LINE
  8
0
 62
     0
 10
2.33853
 20
1.43591
 30
0.0
 11
2.48736
 21
1.09279
 31
0.0
  0
LINE
  8
0
 62
     0
 10
2.48736
 20
1.09279
 30
0.0
 11
2.51768
 21
1.06385
 31
0.0
  0
LINE
  8
0
 62
     0
 10
2.51768
 20
1.06385
 30
0.0
 11
2.54661
 21
1.03491
 31
0.0
  0
LINE
  8
0
 62
     0
 10
2.54661
 20
1.03491
 30
0.0
 11
2.91455
 21
0.887458
 31
0.0
  0
LINE
  8
0
 62
     0
 10
2.91455
 20
0.887458
 30
0.0
 11
3.0372
 21
0.887458
 31
0.0
  0
LINE
  8
0
 62
     0
 10
3.0372
 20
0.887458
 30
0.0
 11
4.13135
 21
0.887458
 31
0.0
  0
LINE
  8
0
 62
     0
 10
4.13135
 20
0.887458
 30
0.0
 11
4.13135
 21
0.283876
 31
0.0
  0
LINE
  8
0
 62
     0
 10
4.13135
 20
0.283876
 30
0.0
 11
0
 21
0.283876
 31
0.0
  0
LINE
  8
0
 62
     0
 10
82.1916
 20
5.08497
 30
0.0
 11
81.3978
 21
4.3863
 31
0.0
  0
LINE
  8
0
 62
     0
 10
81.3978
 20
4.3863
 30
0.0
 11
81.3276
 21
4.48275
 31
0.0
  0
LINE
  8
0
 62
     0
 10
81.3276
 20
4.48275
 30
0.0
 11
80.742
 21
4.96506
 31
0.0
  0
LINE
  8
0
 62
     0
 10
80.742
 20
4.96506
 30
0.0
 11
80.5476
 21
4.96506
 31
0.0
  0
LINE
  8
0
 62
     0
 10
80.5476
 20
4.96506
 30
0.0
 11
80.4609
 21
4.96506
 31
0.0
  0
LINE
  8
0
 62
     0
 10
80.4609
 20
4.96506
 30
0.0
 11
80.2252
 21
4.87412
 31
0.0
  0
LINE
  8
0
 62
     0
 10
80.2252
 20
4.87412
 30
0.0
 11
80.2033
 21
4.85482
 31
0.0
  0
LINE
  8
0
 62
     0
 10
80.2033
 20
4.85482
 30
0.0
 11
80.1797
 21
4.8369
 31
0.0
  0
LINE
  8
0
 62
     0
 10
80.1797
 20
4.8369
 30
0.0
 11
80.0682
 21
4.65914
 31
0.0
  0
LINE
  8
0
 62
     0
 10
80.0682
 20
4.65914
 30
0.0
 11
80.0682
 21
4.59853
 31
0.0
  0
LINE
  8
0
 62
     0
 10
80.0682
 20
4.59853
 30
0.0
 11
80.0682
 21
4.53238
 31
0.0
  0
LINE
  8
0
 62
     0
 10
80.0682
 20
4.53238
 30
0.0
 11
80.1469
 21
4.35321
 31
0.0
  0
LINE
  8
0
 62
     0
 10
80.1469
 20
4.35321
 30
0.0
 11
80.1631
 21
4.33116
 31
0.0
  0
LINE
  8
0
 62
     0
 10
80.1631
 20
4.33116
 30
0.0
 11
80.1853
 21
4.30361
 31
0.0
  0
LINE
  8
0
 62
     0
 10
80.1853
 20
4.30361
 30
0.0
 11
80.4252
 21
4.06658
 31
0.0
  0
LINE
  8
0
 62
     0
 10
80.4252
 20
4.06658
 30
0.0
 11
80.8411
 21
3.70141
 31
0.0
  0
LINE
  8
0
 62
     0
 10
80.8411
 20
3.70141
 30
0.0
 11
80.9516
 21
3.60909
 31
0.0
  0
LINE
  8
0
 62
     0
 10
80.9516
 20
3.60909
 30
0.0
 11
81.0535
 21
3.52364
 31
0.0
  0
LINE
  8
0
 62
     0
 10
81.0535
 20
3.52364
 30
0.0
 11
81.4433
 21
3.19154
 31
0.0
  0
LINE
  8
0
 62
     0
 10
81.4433
 20
3.19154
 30
0.0
 11
81.6737
 21
2.98483
 31
0.0
  0
LINE
  8
0
 62
     0
 10
81.6737
 20
2.98483
 30
0.0
 11
81.6956
 21
2.96278
 31
0.0
  0
LINE
  8
0
 62
     0
 10
81.6956
 20
2.96278
 30
0.0
 11
81.7492
 21
2.90904
 31
0.0
  0
LINE
  8
0
 62
     0
 10
81.7492
 20
2.90904
 30
0.0
 11
82.1337
 21
2.38538
 31
0.0
  0
LINE
  8
0
 62
     0
 10
82.1337
 20
2.38538
 30
0.0
 11
82.1574
 21
2.3344
 31
0.0
  0
LINE
  8
0
 62
     0
 10
82.1574
 20
2.3344
 30
0.0
 11
82.1792
 21
2.28479
 31
0.0
  0
LINE
  8
0
 62
     0
 10
82.1792
 20
2.28479
 30
0.0
 11
82.2935
 21
1.83141
 31
0.0
  0
LINE
  8
0
 62
     0
 10
82.2935
 20
1.83141
 30
0.0
 11
82.2935
 21
1.67983
 31
0.0
  0
LINE
  8
0
 62
     0
 10
82.2935
 20
1.67983
 30
0.0
 11
82.2935
 21
1.52273
 31
0.0
  0
LINE
  8
0
 62
     0
 10
82.2935
 20
1.52273
 30
0.0
 11
82.1739
 21
1.04731
 31
0.0
  0
LINE
  8
0
 62
     0
 10
82.1739
 20
1.04731
 30
0.0
 11
81.8942
 21
0.610471
 31
0.0
  0
LINE
  8
0
 62
     0
 10
81.8942
 20
0.610471
 30
0.0
 11
81.8141
 21
0.534681
 31
0.0
  0
LINE
  8
0
 62
     0
 10
81.8141
 20
0.534681
 30
0.0
 11
81.7344
 21
0.460266
 31
0.0
  0
LINE
  8
0
 62
     0
 10
81.7344
 20
0.460266
 30
0.0
 11
81.2631
 21
0.19706
 31
0.0
  0
LINE
  8
0
 62
     0
 10
81.2631
 20
0.19706
 30
0.0
 11
80.7378
 21
0.0840602
 31
0.0
  0
LINE
  8
0
 62
     0
 10
80.7378
 20
0.0840602
 30
0.0
 11
80.5642
 21
0.0840602
 31
0.0
  0
LINE
  8
0
 62
     0
 10
80.5642
 20
0.0840602
 30
0.0
 11
80.3025
 21
0.0840602
 31
0.0
  0
LINE
  8
0
 62
     0
 10
80.3025
 20
0.0840602
 30
0.0
 11
79.5913
 21
0.329351
 31
0.0
  0
LINE
  8
0
 62
     0
 10
79.5913
 20
0.329351
 30
0.0
 11
79.5168
 21
0.377582
 31
0.0
  0
LINE
  8
0
 62
     0
 10
79.5168
 20
0.377582
 30
0.0
 11
79.4424
 21
0.428569
 31
0.0
  0
LINE
  8
0
 62
     0
 10
79.4424
 20
0.428569
 30
0.0
 11
78.8046
 21
1.19889
 31
0.0
  0
LINE
  8
0
 62
     0
 10
78.8046
 20
1.19889
 30
0.0
 11
78.752
 21
1.30362
 31
0.0
  0
LINE
  8
0
 62
     0
 10
78.752
 20
1.30362
 30
0.0
 11
79.6548
 21
1.84657
 31
0.0
  0
LINE
  8
0
 62
     0
 10
79.6548
 20
1.84657
 30
0.0
 11
79.7221
 21
1.72255
 31
0.0
  0
LINE
  8
0
 62
     0
 10
79.7221
 20
1.72255
 30
0.0
 11
80.0915
 21
1.28984
 31
0.0
  0
LINE
  8
0
 62
     0
 10
80.0915
 20
1.28984
 30
0.0
 11
80.4651
 21
1.10381
 31
0.0
  0
LINE
  8
0
 62
     0
 10
80.4651
 20
1.10381
 30
0.0
 11
80.5903
 21
1.10381
 31
0.0
  0
LINE
  8
0
 62
     0
 10
80.5903
 20
1.10381
 30
0.0
 11
80.706
 21
1.10381
 31
0.0
  0
LINE
  8
0
 62
     0
 10
80.706
 20
1.10381
 30
0.0
 11
81.0246
 21
1.23748
 31
0.0
  0
LINE
  8
0
 62
     0
 10
81.0246
 20
1.23748
 30
0.0
 11
81.0563
 21
1.26366
 31
0.0
  0
LINE
  8
0
 62
     0
 10
81.0563
 20
1.26366
 30
0.0
 11
81.0867
 21
1.29122
 31
0.0
  0
LINE
  8
0
 62
     0
 10
81.0867
 20
1.29122
 30
0.0
 11
81.2437
 21
1.55029
 31
0.0
  0
LINE
  8
0
 62
     0
 10
81.2437
 20
1.55029
 30
0.0
 11
81.2437
 21
1.63573
 31
0.0
  0
LINE
  8
0
 62
     0
 10
81.2437
 20
1.63573
 30
0.0
 11
81.2437
 21
1.7322
 31
0.0
  0
LINE
  8
0
 62
     0
 10
81.2437
 20
1.7322
 30
0.0
 11
81.1251
 21
1.98713
 31
0.0
  0
LINE
  8
0
 62
     0
 10
81.1251
 20
1.98713
 30
0.0
 11
81.1018
 21
2.01883
 31
0.0
  0
LINE
  8
0
 62
     0
 10
81.1018
 20
2.01883
 30
0.0
 11
81.0782
 21
2.05052
 31
0.0
  0
LINE
  8
0
 62
     0
 10
81.0782
 20
2.05052
 30
0.0
 11
80.5561
 21
2.53835
 31
0.0
  0
LINE
  8
0
 62
     0
 10
80.5561
 20
2.53835
 30
0.0
 11
80.476
 21
2.60312
 31
0.0
  0
LINE
  8
0
 62
     0
 10
80.476
 20
2.60312
 30
0.0
 11
80.3219
 21
2.72852
 31
0.0
  0
LINE
  8
0
 62
     0
 10
80.3219
 20
2.72852
 30
0.0
 11
79.7183
 21
3.26595
 31
0.0
  0
LINE
  8
0
 62
     0
 10
79.7183
 20
3.26595
 30
0.0
 11
79.3323
 21
3.69037
 31
0.0
  0
LINE
  8
0
 62
     0
 10
79.3323
 20
3.69037
 30
0.0
 11
79.2882
 21
3.75789
 31
0.0
  0
LINE
  8
0
 62
     0
 10
79.2882
 20
3.75789
 30
0.0
 11
79.2427
 21
3.82683
 31
0.0
  0
LINE
  8
0
 62
     0
 10
79.2427
 20
3.82683
 30
0.0
 11
79.018
 21
4.38492
 31
0.0
  0
LINE
  8
0
 62
     0
 10
79.018
 20
4.38492
 30
0.0
 11
79.018
 21
4.56957
 31
0.0
  0
LINE
  8
0
 62
     0
 10
79.018
 20
4.56957
 30
0.0
 11
79.018
 21
4.82177
 31
0.0
  0
LINE
  8
0
 62
     0
 10
79.018
 20
4.82177
 30
0.0
 11
79.3902
 21
5.50527
 31
0.0
  0
LINE
  8
0
 62
     0
 10
79.3902
 20
5.50527
 30
0.0
 11
79.4646
 21
5.57417
 31
0.0
  0
LINE
  8
0
 62
     0
 10
79.4646
 20
5.57417
 30
0.0
 11
79.539
 21
5.64444
 31
0.0
  0
LINE
  8
0
 62
     0
 10
79.539
 20
5.64444
 30
0.0
 11
80.3081
 21
5.99172
 31
0.0
  0
LINE
  8
0
 62
     0
 10
80.3081
 20
5.99172
 30
0.0
 11
80.5642
 21
5.99172
 31
0.0
  0
LINE
  8
0
 62
     0
 10
80.5642
 20
5.99172
 30
0.0
 11
80.7642
 21
5.99172
 31
0.0
  0
LINE
  8
0
 62
     0
 10
80.7642
 20
5.99172
 30
0.0
 11
81.3029
 21
5.83046
 31
0.0
  0
LINE
  8
0
 62
     0
 10
81.3029
 20
5.83046
 30
0.0
 11
81.3664
 21
5.79741
 31
0.0
  0
LINE
  8
0
 62
     0
 10
81.3664
 20
5.79741
 30
0.0
 11
81.4296
 21
5.76573
 31
0.0
  0
LINE
  8
0
 62
     0
 10
81.4296
 20
5.76573
 30
0.0
 11
82.1171
 21
5.17179
 31
0.0
  0
LINE
  8
0
 62
     0
 10
82.1171
 20
5.17179
 30
0.0
 11
82.1916
 21
5.08497
 31
0.0
  0
LINE
  8
0
 62
     0
 10
101.151
 20
5.08497
 30
0.0
 11
100.356
 21
4.3863
 31
0.0
  0
LINE
  8
0
 62
     0
 10
100.356
 20
4.3863
 30
0.0
 11
100.285
 21
4.48275
 31
0.0
  0
LINE
  8
0
 62
     0
 10
100.285
 20
4.48275
 30
0.0
 11
99.701
 21
4.96506
 31
0.0
  0
LINE
  8
0
 62
     0
 10
99.701
 20
4.96506
 30
0.0
 11
99.5066
 21
4.96506
 31
0.0
  0
LINE
  8
0
 62
     0
 10
99.5066
 20
4.96506
 30
0.0
 11
99.4198
 21
4.96506
 31
0.0
  0
LINE
  8
0
 62
     0
 10
99.4198
 20
4.96506
 30
0.0
 11
99.1828
 21
4.87412
 31
0.0
  0
LINE
  8
0
 62
     0
 10
99.1828
 20
4.87412
 30
0.0
 11
99.1609
 21
4.85482
 31
0.0
  0
LINE
  8
0
 62
     0
 10
99.1609
 20
4.85482
 30
0.0
 11
99.1376
 21
4.8369
 31
0.0
  0
LINE
  8
0
 62
     0
 10
99.1376
 20
4.8369
 30
0.0
 11
99.0272
 21
4.65914
 31
0.0
  0
LINE
  8
0
 62
     0
 10
99.0272
 20
4.65914
 30
0.0
 11
99.0272
 21
4.59853
 31
0.0
  0
LINE
  8
0
 62
     0
 10
99.0272
 20
4.59853
 30
0.0
 11
99.0272
 21
4.53238
 31
0.0
  0
LINE
  8
0
 62
     0
 10
99.0272
 20
4.53238
 30
0.0
 11
99.1059
 21
4.35321
 31
0.0
  0
LINE
  8
0
 62
     0
 10
99.1059
 20
4.35321
 30
0.0
 11
99.1224
 21
4.33116
 31
0.0
  0
LINE
  8
0
 62
     0
 10
99.1224
 20
4.33116
 30
0.0
 11
99.1429
 21
4.30361
 31
0.0
  0
LINE
  8
0
 62
     0
 10
99.1429
 20
4.30361
 30
0.0
 11
99.3842
 21
4.06658
 31
0.0
  0
LINE
  8
0
 62
     0
 10
99.3842
 20
4.06658
 30
0.0
 11
99.7991
 21
3.70141
 31
0.0
  0
LINE
  8
0
 62
     0
 10
99.7991
 20
3.70141
 30
0.0
 11
99.9091
 21
3.60909
 31
0.0
  0
LINE
  8
0
 62
     0
 10
99.9091
 20
3.60909
 30
0.0
 11
100.011
 21
3.52364
 31
0.0
  0
LINE
  8
0
 62
     0
 10
100.011
 20
3.52364
 30
0.0
 11
100.401
 21
3.19154
 31
0.0
  0
LINE
  8
0
 62
     0
 10
100.401
 20
3.19154
 30
0.0
 11
100.631
 21
2.98483
 31
0.0
  0
LINE
  8
0
 62
     0
 10
100.631
 20
2.98483
 30
0.0
 11
100.653
 21
2.96278
 31
0.0
  0
LINE
  8
0
 62
     0
 10
100.653
 20
2.96278
 30
0.0
 11
100.707
 21
2.90904
 31
0.0
  0
LINE
  8
0
 62
     0
 10
100.707
 20
2.90904
 30
0.0
 11
101.093
 21
2.38538
 31
0.0
  0
LINE
  8
0
 62
     0
 10
101.093
 20
2.38538
 30
0.0
 11
101.116
 21
2.3344
 31
0.0
  0
LINE
  8
0
 62
     0
 10
101.116
 20
2.3344
 30
0.0
 11
101.138
 21
2.28479
 31
0.0
  0
LINE
  8
0
 62
     0
 10
101.138
 20
2.28479
 30
0.0
 11
101.251
 21
1.83141
 31
0.0
  0
LINE
  8
0
 62
     0
 10
101.251
 20
1.83141
 30
0.0
 11
101.251
 21
1.67983
 31
0.0
  0
LINE
  8
0
 62
     0
 10
101.251
 20
1.67983
 30
0.0
 11
101.251
 21
1.52273
 31
0.0
  0
LINE
  8
0
 62
     0
 10
101.251
 20
1.52273
 30
0.0
 11
101.132
 21
1.04731
 31
0.0
  0
LINE
  8
0
 62
     0
 10
101.132
 20
1.04731
 30
0.0
 11
100.853
 21
0.610471
 31
0.0
  0
LINE
  8
0
 62
     0
 10
100.853
 20
0.610471
 30
0.0
 11
100.773
 21
0.534681
 31
0.0
  0
LINE
  8
0
 62
     0
 10
100.773
 20
0.534681
 30
0.0
 11
100.693
 21
0.460266
 31
0.0
  0
LINE
  8
0
 62
     0
 10
100.693
 20
0.460266
 30
0.0
 11
100.221
 21
0.19706
 31
0.0
  0
LINE
  8
0
 62
     0
 10
100.221
 20
0.19706
 30
0.0
 11
99.6968
 21
0.0840602
 31
0.0
  0
LINE
  8
0
 62
     0
 10
99.6968
 20
0.0840602
 30
0.0
 11
99.5232
 21
0.0840602
 31
0.0
  0
LINE
  8
0
 62
     0
 10
99.5232
 20
0.0840602
 30
0.0
 11
99.2614
 21
0.0840602
 31
0.0
  0
LINE
  8
0
 62
     0
 10
99.2614
 20
0.0840602
 30
0.0
 11
98.5502
 21
0.329351
 31
0.0
  0
LINE
  8
0
 62
     0
 10
98.5502
 20
0.329351
 30
0.0
 11
98.4761
 21
0.377582
 31
0.0
  0
LINE
  8
0
 62
     0
 10
98.4761
 20
0.377582
 30
0.0
 11
98.4017
 21
0.428569
 31
0.0
  0
LINE
  8
0
 62
     0
 10
98.4017
 20
0.428569
 30
0.0
 11
97.7635
 21
1.19889
 31
0.0
  0
LINE
  8
0
 62
     0
 10
97.7635
 20
1.19889
 30
0.0
 11
97.7113
 21
1.30362
 31
0.0
  0
LINE
  8
0
 62
     0
 10
97.7113
 20
1.30362
 30
0.0
 11
98.6123
 21
1.84657
 31
0.0
  0
LINE
  8
0
 62
     0
 10
98.6123
 20
1.84657
 30
0.0
 11
98.6801
 21
1.72255
 31
0.0
  0
LINE
  8
0
 62
     0
 10
98.6801
 20
1.72255
 30
0.0
 11
99.0505
 21
1.28984
 31
0.0
  0
LINE
  8
0
 62
     0
 10
99.0505
 20
1.28984
 30
0.0
 11
99.4241
 21
1.10381
 31
0.0
  0
LINE
  8
0
 62
     0
 10
99.4241
 20
1.10381
 30
0.0
 11
99.5497
 21
1.10381
 31
0.0
  0
LINE
  8
0
 62
     0
 10
99.5497
 20
1.10381
 30
0.0
 11
99.6654
 21
1.10381
 31
0.0
  0
LINE
  8
0
 62
     0
 10
99.6654
 20
1.10381
 30
0.0
 11
99.9822
 21
1.23748
 31
0.0
  0
LINE
  8
0
 62
     0
 10
99.9822
 20
1.23748
 30
0.0
 11
100.014
 21
1.26366
 31
0.0
  0
LINE
  8
0
 62
     0
 10
100.014
 20
1.26366
 30
0.0
 11
100.044
 21
1.29122
 31
0.0
  0
LINE
  8
0
 62
     0
 10
100.044
 20
1.29122
 30
0.0
 11
100.203
 21
1.55029
 31
0.0
  0
LINE
  8
0
 62
     0
 10
100.203
 20
1.55029
 30
0.0
 11
100.203
 21
1.63573
 31
0.0
  0
LINE
  8
0
 62
     0
 10
100.203
 20
1.63573
 30
0.0
 11
100.203
 21
1.7322
 31
0.0
  0
LINE
  8
0
 62
     0
 10
100.203
 20
1.7322
 30
0.0
 11
100.083
 21
1.98713
 31
0.0
  0
LINE
  8
0
 62
     0
 10
100.083
 20
1.98713
 30
0.0
 11
100.059
 21
2.01883
 31
0.0
  0
LINE
  8
0
 62
     0
 10
100.059
 20
2.01883
 30
0.0
 11
100.036
 21
2.05052
 31
0.0
  0
LINE
  8
0
 62
     0
 10
100.036
 20
2.05052
 30
0.0
 11
99.5137
 21
2.53835
 31
0.0
  0
LINE
  8
0
 62
     0
 10
99.5137
 20
2.53835
 30
0.0
 11
99.4336
 21
2.60312
 31
0.0
  0
LINE
  8
0
 62
     0
 10
99.4336
 20
2.60312
 30
0.0
 11
99.2794
 21
2.72852
 31
0.0
  0
LINE
  8
0
 62
     0
 10
99.2794
 20
2.72852
 30
0.0
 11
98.6758
 21
3.26595
 31
0.0
  0
LINE
  8
0
 62
     0
 10
98.6758
 20
3.26595
 30
0.0
 11
98.2899
 21
3.69037
 31
0.0
  0
LINE
  8
0
 62
     0
 10
98.2899
 20
3.69037
 30
0.0
 11
98.2458
 21
3.75789
 31
0.0
  0
LINE
  8
0
 62
     0
 10
98.2458
 20
3.75789
 30
0.0
 11
98.2003
 21
3.82683
 31
0.0
  0
LINE
  8
0
 62
     0
 10
98.2003
 20
3.82683
 30
0.0
 11
97.977
 21
4.38492
 31
0.0
  0
LINE
  8
0
 62
     0
 10
97.977
 20
4.38492
 30
0.0
 11
97.977
 21
4.56957
 31
0.0
  0
LINE
  8
0
 62
     0
 10
97.977
 20
4.56957
 30
0.0
 11
97.977
 21
4.82177
 31
0.0
  0
LINE
  8
0
 62
     0
 10
97.977
 20
4.82177
 30
0.0
 11
98.3477
 21
5.50527
 31
0.0
  0
LINE
  8
0
 62
     0
 10
98.3477
 20
5.50527
 30
0.0
 11
98.4222
 21
5.57417
 31
0.0
  0
LINE
  8
0
 62
     0
 10
98.4222
 20
5.57417
 30
0.0
 11
98.4966
 21
5.64444
 31
0.0
  0
LINE
  8
0
 62
     0
 10
98.4966
 20
5.64444
 30
0.0
 11
99.2657
 21
5.99172
 31
0.0
  0
LINE
  8
0
 62
     0
 10
99.2657
 20
5.99172
 30
0.0
 11
99.5232
 21
5.99172
 31
0.0
  0
LINE
  8
0
 62
     0
 10
99.5232
 20
5.99172
 30
0.0
 11
99.7232
 21
5.99172
 31
0.0
  0
LINE
  8
0
 62
     0
 10
99.7232
 20
5.99172
 30
0.0
 11
100.262
 21
5.83046
 31
0.0
  0
LINE
  8
0
 62
     0
 10
100.262
 20
5.83046
 30
0.0
 11
100.325
 21
5.79741
 31
0.0
  0
LINE
  8
0
 62
     0
 10
100.325
 20
5.79741
 30
0.0
 11
100.389
 21
5.76573
 31
0.0
  0
LINE
  8
0
 62
     0
 10
100.389
 20
5.76573
 30
0.0
 11
101.076
 21
5.17179
 31
0.0
  0
LINE
  8
0
 62
     0
 10
101.076
 20
5.17179
 30
0.0
 11
101.151
 21
5.08497
 31
0.0
  0
LINE
  8
0
 62
     0
 10
94.1296
 20
5.85251
 30
0.0
 11
97.2012
 21
5.85251
 31
0.0
  0
LINE
  8
0
 62
     0
 10
97.2012
 20
5.85251
 30
0.0
 11
97.2012
 21
4.80109
 31
0.0
  0
LINE
  8
0
 62
     0
 10
97.2012
 20
4.80109
 30
0.0
 11
95.1964
 21
4.80109
 31
0.0
  0
LINE
  8
0
 62
     0
 10
95.1964
 20
4.80109
 30
0.0
 11
95.1964
 21
3.78961
 31
0.0
  0
LINE
  8
0
 62
     0
 10
95.1964
 20
3.78961
 30
0.0
 11
97.2012
 21
3.78961
 31
0.0
  0
LINE
  8
0
 62
     0
 10
97.2012
 20
3.78961
 30
0.0
 11
97.2012
 21
2.75608
 31
0.0
  0
LINE
  8
0
 62
     0
 10
97.2012
 20
2.75608
 30
0.0
 11
95.1964
 21
2.75608
 31
0.0
  0
LINE
  8
0
 62
     0
 10
95.1964
 20
2.75608
 30
0.0
 11
95.1964
 21
1.27468
 31
0.0
  0
LINE
  8
0
 62
     0
 10
95.1964
 20
1.27468
 30
0.0
 11
97.2012
 21
1.27468
 31
0.0
  0
LINE
  8
0
 62
     0
 10
97.2012
 20
1.27468
 30
0.0
 11
97.2012
 21
0.225998
 31
0.0
  0
LINE
  8
0
 62
     0
 10
97.2012
 20
0.225998
 30
0.0
 11
94.1296
 21
0.225998
 31
0.0
  0
LINE
  8
0
 62
     0
 10
94.1296
 20
0.225998
 30
0.0
 11
94.1296
 21
5.85251
 31
0.0
  0
LINE
  8
0
 62
     0
 10
91.8517
 20
5.85251
 30
0.0
 11
92.9171
 21
5.85251
 31
0.0
  0
LINE
  8
0
 62
     0
 10
92.9171
 20
5.85251
 30
0.0
 11
92.9171
 21
0.225998
 31
0.0
  0
LINE
  8
0
 62
     0
 10
92.9171
 20
0.225998
 30
0.0
 11
91.8517
 21
0.225998
 31
0.0
  0
LINE
  8
0
 62
     0
 10
91.8517
 20
0.225998
 30
0.0
 11
91.8517
 21
5.85251
 31
0.0
  0
LINE
  8
0
 62
     0
 10
87.4571
 20
5.85251
 30
0.0
 11
88.5941
 21
5.85251
 31
0.0
  0
LINE
  8
0
 62
     0
 10
88.5941
 20
5.85251
 30
0.0
 11
88.7924
 21
5.85251
 31
0.0
  0
LINE
  8
0
 62
     0
 10
88.7924
 20
5.85251
 30
0.0
 11
89.3921
 21
5.8112
 31
0.0
  0
LINE
  8
0
 62
     0
 10
89.3921
 20
5.8112
 30
0.0
 11
89.8564
 21
5.71334
 31
0.0
  0
LINE
  8
0
 62
     0
 10
89.8564
 20
5.71334
 30
0.0
 11
89.9223
 21
5.68441
 31
0.0
  0
LINE
  8
0
 62
     0
 10
89.9223
 20
5.68441
 30
0.0
 11
89.9887
 21
5.65824
 31
0.0
  0
LINE
  8
0
 62
     0
 10
89.9887
 20
5.65824
 30
0.0
 11
90.5192
 21
5.19797
 31
0.0
  0
LINE
  8
0
 62
     0
 10
90.5192
 20
5.19797
 30
0.0
 11
90.5605
 21
5.1332
 31
0.0
  0
LINE
  8
0
 62
     0
 10
90.5605
 20
5.1332
 30
0.0
 11
90.6004
 21
5.06843
 31
0.0
  0
LINE
  8
0
 62
     0
 10
90.6004
 20
5.06843
 30
0.0
 11
90.8018
 21
4.4304
 31
0.0
  0
LINE
  8
0
 62
     0
 10
90.8018
 20
4.4304
 30
0.0
 11
90.8018
 21
4.21679
 31
0.0
  0
LINE
  8
0
 62
     0
 10
90.8018
 20
4.21679
 30
0.0
 11
90.8018
 21
3.9853
 31
0.0
  0
LINE
  8
0
 62
     0
 10
90.8018
 20
3.9853
 30
0.0
 11
90.5813
 21
3.35277
 31
0.0
  0
LINE
  8
0
 62
     0
 10
90.5813
 20
3.35277
 30
0.0
 11
90.5372
 21
3.29076
 31
0.0
  0
LINE
  8
0
 62
     0
 10
90.5372
 20
3.29076
 30
0.0
 11
90.4917
 21
3.22874
 31
0.0
  0
LINE
  8
0
 62
     0
 10
90.4917
 20
3.22874
 30
0.0
 11
89.8246
 21
2.75883
 31
0.0
  0
LINE
  8
0
 62
     0
 10
89.8246
 20
2.75883
 30
0.0
 11
89.7364
 21
2.72576
 31
0.0
  0
LINE
  8
0
 62
     0
 10
89.7364
 20
2.72576
 30
0.0
 11
91.065
 21
0.225998
 31
0.0
  0
LINE
  8
0
 62
     0
 10
91.065
 20
0.225998
 30
0.0
 11
89.8948
 21
0.225998
 31
0.0
  0
LINE
  8
0
 62
     0
 10
89.8948
 20
0.225998
 30
0.0
 11
88.6298
 21
2.60725
 31
0.0
  0
LINE
  8
0
 62
     0
 10
88.6298
 20
2.60725
 30
0.0
 11
88.5225
 21
2.60725
 31
0.0
  0
LINE
  8
0
 62
     0
 10
88.5225
 20
2.60725
 30
0.0
 11
88.5225
 21
0.225998
 31
0.0
  0
LINE
  8
0
 62
     0
 10
88.5225
 20
0.225998
 30
0.0
 11
87.4571
 21
0.225998
 31
0.0
  0
LINE
  8
0
 62
     0
 10
87.4571
 20
0.225998
 30
0.0
 11
87.4571
 21
5.85251
 31
0.0
  0
LINE
  8
0
 62
     0
 10
88.5225
 20
3.65044
 30
0.0
 11
88.8615
 21
3.65044
 31
0.0
  0
LINE
  8
0
 62
     0
 10
88.8615
 20
3.65044
 30
0.0
 11
89.0393
 21
3.65044
 31
0.0
  0
LINE
  8
0
 62
     0
 10
89.0393
 20
3.65044
 30
0.0
 11
89.5406
 21
3.76206
 31
0.0
  0
LINE
  8
0
 62
     0
 10
89.5406
 20
3.76206
 30
0.0
 11
89.5738
 21
3.78411
 31
0.0
  0
LINE
  8
0
 62
     0
 10
89.5738
 20
3.78411
 30
0.0
 11
89.6056
 21
3.80753
 31
0.0
  0
LINE
  8
0
 62
     0
 10
89.6056
 20
3.80753
 30
0.0
 11
89.7682
 21
4.12584
 31
0.0
  0
LINE
  8
0
 62
     0
 10
89.7682
 20
4.12584
 30
0.0
 11
89.7682
 21
4.23196
 31
0.0
  0
LINE
  8
0
 62
     0
 10
89.7682
 20
4.23196
 30
0.0
 11
89.7682
 21
4.31327
 31
0.0
  0
LINE
  8
0
 62
     0
 10
89.7682
 20
4.31327
 30
0.0
 11
89.6867
 21
4.53101
 31
0.0
  0
LINE
  8
0
 62
     0
 10
89.6867
 20
4.53101
 30
0.0
 11
89.6719
 21
4.55306
 31
0.0
  0
LINE
  8
0
 62
     0
 10
89.6719
 20
4.55306
 30
0.0
 11
89.6553
 21
4.57648
 31
0.0
  0
LINE
  8
0
 62
     0
 10
89.6553
 20
4.57648
 30
0.0
 11
89.4387
 21
4.74045
 31
0.0
  0
LINE
  8
0
 62
     0
 10
89.4387
 20
4.74045
 30
0.0
 11
89.4126
 21
4.75008
 31
0.0
  0
LINE
  8
0
 62
     0
 10
89.4126
 20
4.75008
 30
0.0
 11
89.3851
 21
4.75975
 31
0.0
  0
LINE
  8
0
 62
     0
 10
89.3851
 20
4.75975
 30
0.0
 11
88.9593
 21
4.81072
 31
0.0
  0
LINE
  8
0
 62
     0
 10
88.9593
 20
4.81072
 30
0.0
 11
88.8189
 21
4.81072
 31
0.0
  0
LINE
  8
0
 62
     0
 10
88.8189
 20
4.81072
 30
0.0
 11
88.5225
 21
4.81072
 31
0.0
  0
LINE
  8
0
 62
     0
 10
88.5225
 20
4.81072
 30
0.0
 11
88.5225
 21
3.65044
 31
0.0
  0
LINE
  8
0
 62
     0
 10
83.3205
 20
5.85251
 30
0.0
 11
86.3907
 21
5.85251
 31
0.0
  0
LINE
  8
0
 62
     0
 10
86.3907
 20
5.85251
 30
0.0
 11
86.3907
 21
4.80109
 31
0.0
  0
LINE
  8
0
 62
     0
 10
86.3907
 20
4.80109
 30
0.0
 11
84.3855
 21
4.80109
 31
0.0
  0
LINE
  8
0
 62
     0
 10
84.3855
 20
4.80109
 30
0.0
 11
84.3855
 21
3.78961
 31
0.0
  0
LINE
  8
0
 62
     0
 10
84.3855
 20
3.78961
 30
0.0
 11
86.3907
 21
3.78961
 31
0.0
  0
LINE
  8
0
 62
     0
 10
86.3907
 20
3.78961
 30
0.0
 11
86.3907
 21
2.75608
 31
0.0
  0
LINE
  8
0
 62
     0
 10
86.3907
 20
2.75608
 30
0.0
 11
84.3855
 21
2.75608
 31
0.0
  0
LINE
  8
0
 62
     0
 10
84.3855
 20
2.75608
 30
0.0
 11
84.3855
 21
1.27468
 31
0.0
  0
LINE
  8
0
 62
     0
 10
84.3855
 20
1.27468
 30
0.0
 11
86.3907
 21
1.27468
 31
0.0
  0
LINE
  8
0
 62
     0
 10
86.3907
 20
1.27468
 30
0.0
 11
86.3907
 21
0.225998
 31
0.0
  0
LINE
  8
0
 62
     0
 10
86.3907
 20
0.225998
 30
0.0
 11
83.3205
 21
0.225998
 31
0.0
  0
LINE
  8
0
 62
     0
 10
83.3205
 20
0.225998
 30
0.0
 11
83.3205
 21
5.85251
 31
0.0
  0
LINE
  8
0
 62
     0
 10
64.0595
 20
0.283876
 30
0.0
 11
64.0595
 21
0.887458
 31
0.0
  0
LINE
  8
0
 62
     0
 10
64.0595
 20
0.887458
 30
0.0
 11
65.5493
 21
0.887458
 31
0.0
  0
LINE
  8
0
 62
     0
 10
65.5493
 20
0.887458
 30
0.0
 11
65.5493
 21
11.9779
 31
0.0
  0
LINE
  8
0
 62
     0
 10
65.5493
 20
11.9779
 30
0.0
 11
64.2705
 21
11.9779
 31
0.0
  0
LINE
  8
0
 62
     0
 10
64.2705
 20
11.9779
 30
0.0
 11
64.2705
 21
12.5443
 31
0.0
  0
LINE
  8
0
 62
     0
 10
64.2705
 20
12.5443
 30
0.0
 11
74.4897
 21
12.5443
 31
0.0
  0
LINE
  8
0
 62
     0
 10
74.4897
 20
12.5443
 30
0.0
 11
74.5285
 21
9.31831
 31
0.0
  0
LINE
  8
0
 62
     0
 10
74.5285
 20
9.31831
 30
0.0
 11
73.9055
 21
9.31831
 31
0.0
  0
LINE
  8
0
 62
     0
 10
73.9055
 20
9.31831
 30
0.0
 11
73.8008
 21
9.58014
 31
0.0
  0
LINE
  8
0
 62
     0
 10
73.8008
 20
9.58014
 30
0.0
 11
73.2744
 21
10.6288
 31
0.0
  0
LINE
  8
0
 62
     0
 10
73.2744
 20
10.6288
 30
0.0
 11
72.7424
 21
11.3399
 31
0.0
  0
LINE
  8
0
 62
     0
 10
72.7424
 20
11.3399
 30
0.0
 11
72.6352
 21
11.4308
 31
0.0
  0
LINE
  8
0
 62
     0
 10
72.6352
 20
11.4308
 30
0.0
 11
72.5276
 21
11.5218
 31
0.0
  0
LINE
  8
0
 62
     0
 10
72.5276
 20
11.5218
 30
0.0
 11
71.8425
 21
11.8415
 31
0.0
  0
LINE
  8
0
 62
     0
 10
71.8425
 20
11.8415
 30
0.0
 11
71.0283
 21
11.9779
 31
0.0
  0
LINE
  8
0
 62
     0
 10
71.0283
 20
11.9779
 30
0.0
 11
70.7581
 21
11.9779
 31
0.0
  0
LINE
  8
0
 62
     0
 10
70.7581
 20
11.9779
 30
0.0
 11
68.6428
 21
11.9779
 31
0.0
  0
LINE
  8
0
 62
     0
 10
68.6428
 20
11.9779
 30
0.0
 11
68.6428
 21
6.94256
 31
0.0
  0
LINE
  8
0
 62
     0
 10
68.6428
 20
6.94256
 30
0.0
 11
68.6551
 21
6.94119
 31
0.0
  0
LINE
  8
0
 62
     0
 10
68.6551
 20
6.94119
 30
0.0
 11
68.7959
 21
6.92739
 31
0.0
  0
LINE
  8
0
 62
     0
 10
68.7959
 20
6.92739
 30
0.0
 11
68.8125
 21
6.92602
 31
0.0
  0
LINE
  8
0
 62
     0
 10
68.8125
 20
6.92602
 30
0.0
 11
68.8287
 21
6.92602
 31
0.0
  0
LINE
  8
0
 62
     0
 10
68.8287
 20
6.92602
 30
0.0
 11
69.015
 21
6.92189
 31
0.0
  0
LINE
  8
0
 62
     0
 10
69.015
 20
6.92189
 30
0.0
 11
69.0771
 21
6.92189
 31
0.0
  0
LINE
  8
0
 62
     0
 10
69.0771
 20
6.92189
 30
0.0
 11
69.2961
 21
6.92189
 31
0.0
  0
LINE
  8
0
 62
     0
 10
69.2961
 20
6.92189
 30
0.0
 11
69.9548
 21
7.05418
 31
0.0
  0
LINE
  8
0
 62
     0
 10
69.9548
 20
7.05418
 30
0.0
 11
70.5058
 21
7.36286
 31
0.0
  0
LINE
  8
0
 62
     0
 10
70.5058
 20
7.36286
 30
0.0
 11
70.5915
 21
7.44968
 31
0.0
  0
LINE
  8
0
 62
     0
 10
70.5915
 20
7.44968
 30
0.0
 11
70.6769
 21
7.53787
 31
0.0
  0
LINE
  8
0
 62
     0
 10
70.6769
 20
7.53787
 30
0.0
 11
71.0188
 21
8.14419
 31
0.0
  0
LINE
  8
0
 62
     0
 10
71.0188
 20
8.14419
 30
0.0
 11
71.2392
 21
8.96966
 31
0.0
  0
LINE
  8
0
 62
     0
 10
71.2392
 20
8.96966
 30
0.0
 11
71.2653
 21
9.16672
 31
0.0
  0
LINE
  8
0
 62
     0
 10
71.2653
 20
9.16672
 30
0.0
 11
71.8866
 21
9.16672
 31
0.0
  0
LINE
  8
0
 62
     0
 10
71.8866
 20
9.16672
 30
0.0
 11
71.8866
 21
3.94257
 31
0.0
  0
LINE
  8
0
 62
     0
 10
71.8866
 20
3.94257
 30
0.0
 11
71.2653
 21
3.94257
 31
0.0
  0
LINE
  8
0
 62
     0
 10
71.2653
 20
3.94257
 30
0.0
 11
71.2488
 21
4.15477
 31
0.0
  0
LINE
  8
0
 62
     0
 10
71.2488
 20
4.15477
 30
0.0
 11
71.0572
 21
5.03534
 31
0.0
  0
LINE
  8
0
 62
     0
 10
71.0572
 20
5.03534
 30
0.0
 11
70.7263
 21
5.67612
 31
0.0
  0
LINE
  8
0
 62
     0
 10
70.7263
 20
5.67612
 30
0.0
 11
70.6395
 21
5.76711
 31
0.0
  0
LINE
  8
0
 62
     0
 10
70.6395
 20
5.76711
 30
0.0
 11
70.5513
 21
5.85943
 31
0.0
  0
LINE
  8
0
 62
     0
 10
70.5513
 20
5.85943
 30
0.0
 11
69.9671
 21
6.18187
 31
0.0
  0
LINE
  8
0
 62
     0
 10
69.9671
 20
6.18187
 30
0.0
 11
69.2422
 21
6.31832
 31
0.0
  0
LINE
  8
0
 62
     0
 10
69.2422
 20
6.31832
 30
0.0
 11
69.0012
 21
6.31832
 31
0.0
  0
LINE
  8
0
 62
     0
 10
69.0012
 20
6.31832
 30
0.0
 11
68.6428
 21
6.31832
 31
0.0
  0
LINE
  8
0
 62
     0
 10
68.6428
 20
6.31832
 30
0.0
 11
68.6428
 21
0.887458
 31
0.0
  0
LINE
  8
0
 62
     0
 10
68.6428
 20
0.887458
 30
0.0
 11
70.696
 21
0.887458
 31
0.0
  0
LINE
  8
0
 62
     0
 10
70.696
 20
0.887458
 30
0.0
 11
71.0336
 21
0.887458
 31
0.0
  0
LINE
  8
0
 62
     0
 10
71.0336
 20
0.887458
 30
0.0
 11
72.0478
 21
1.08727
 31
0.0
  0
LINE
  8
0
 62
     0
 10
72.0478
 20
1.08727
 30
0.0
 11
72.9259
 21
1.55443
 31
0.0
  0
LINE
  8
0
 62
     0
 10
72.9259
 20
1.55443
 30
0.0
 11
73.0691
 21
1.6881
 31
0.0
  0
LINE
  8
0
 62
     0
 10
73.0691
 20
1.6881
 30
0.0
 11
73.2109
 21
1.82315
 31
0.0
  0
LINE
  8
0
 62
     0
 10
73.2109
 20
1.82315
 30
0.0
 11
73.8353
 21
2.76435
 31
0.0
  0
LINE
  8
0
 62
     0
 10
73.8353
 20
2.76435
 30
0.0
 11
74.3342
 21
4.06245
 31
0.0
  0
LINE
  8
0
 62
     0
 10
74.3342
 20
4.06245
 30
0.0
 11
74.4153
 21
4.37526
 31
0.0
  0
LINE
  8
0
 62
     0
 10
74.4153
 20
4.37526
 30
0.0
 11
74.9999
 21
4.37526
 31
0.0
  0
LINE
  8
0
 62
     0
 10
74.9999
 20
4.37526
 30
0.0
 11
74.87
 21
0.283876
 31
0.0
  0
LINE
  8
0
 62
     0
 10
74.87
 20
0.283876
 30
0.0
 11
64.0595
 21
0.283876
 31
0.0
  0
LINE
  8
0
 62
     0
 10
50.6127
 20
0.887458
 30
0.0
 11
52.0651
 21
0.887458
 31
0.0
  0
LINE
  8
0
 62
     0
 10
52.0651
 20
0.887458
 30
0.0
 11
52.0651
 21
11.9779
 31
0.0
  0
LINE
  8
0
 62
     0
 10
52.0651
 20
11.9779
 30
0.0
 11
50.6127
 21
11.9779
 31
0.0
  0
LINE
  8
0
 62
     0
 10
50.6127
 20
11.9779
 30
0.0
 11
50.6127
 21
12.5443
 31
0.0
  0
LINE
  8
0
 62
     0
 10
50.6127
 20
12.5443
 30
0.0
 11
57.4629
 21
12.5443
 31
0.0
  0
LINE
  8
0
 62
     0
 10
57.4629
 20
12.5443
 30
0.0
 11
57.93
 21
12.5443
 31
0.0
  0
LINE
  8
0
 62
     0
 10
57.93
 20
12.5443
 30
0.0
 11
59.333
 21
12.372
 31
0.0
  0
LINE
  8
0
 62
     0
 10
59.333
 20
12.372
 30
0.0
 11
60.5194
 21
11.9683
 31
0.0
  0
LINE
  8
0
 62
     0
 10
60.5194
 20
11.9683
 30
0.0
 11
60.7081
 21
11.8525
 31
0.0
  0
LINE
  8
0
 62
     0
 10
60.7081
 20
11.8525
 30
0.0
 11
60.8954
 21
11.7381
 31
0.0
  0
LINE
  8
0
 62
     0
 10
60.8954
 20
11.7381
 30
0.0
 11
61.5527
 21
11.0105
 31
0.0
  0
LINE
  8
0
 62
     0
 10
61.5527
 20
11.0105
 30
0.0
 11
61.8367
 21
10.1492
 31
0.0
  0
LINE
  8
0
 62
     0
 10
61.8367
 20
10.1492
 30
0.0
 11
61.8367
 21
9.86123
 31
0.0
  0
LINE
  8
0
 62
     0
 10
61.8367
 20
9.86123
 30
0.0
 11
61.8367
 21
9.56635
 31
0.0
  0
LINE
  8
0
 62
     0
 10
61.8367
 20
9.56635
 30
0.0
 11
61.5707
 21
8.6789
 31
0.0
  0
LINE
  8
0
 62
     0
 10
61.5707
 20
8.6789
 30
0.0
 11
60.9533
 21
7.89753
 31
0.0
  0
LINE
  8
0
 62
     0
 10
60.9533
 20
7.89753
 30
0.0
 11
60.7769
 21
7.76799
 31
0.0
  0
LINE
  8
0
 62
     0
 10
60.7769
 20
7.76799
 30
0.0
 11
60.6005
 21
7.63986
 31
0.0
  0
LINE
  8
0
 62
     0
 10
60.6005
 20
7.63986
 30
0.0
 11
59.4942
 21
7.1658
 31
0.0
  0
LINE
  8
0
 62
     0
 10
59.4942
 20
7.1658
 30
0.0
 11
58.0898
 21
6.91776
 31
0.0
  0
LINE
  8
0
 62
     0
 10
58.0898
 20
6.91776
 30
0.0
 11
57.7645
 21
6.90259
 31
0.0
  0
LINE
  8
0
 62
     0
 10
57.7645
 20
6.90259
 30
0.0
 11
57.7645
 21
6.7455
 31
0.0
  0
LINE
  8
0
 62
     0
 10
57.7645
 20
6.7455
 30
0.0
 11
58.0983
 21
6.70278
 31
0.0
  0
LINE
  8
0
 62
     0
 10
58.0983
 20
6.70278
 30
0.0
 11
59.4706
 21
6.30315
 31
0.0
  0
LINE
  8
0
 62
     0
 10
59.4706
 20
6.30315
 30
0.0
 11
60.4531
 21
5.66374
 31
0.0
  0
LINE
  8
0
 62
     0
 10
60.4531
 20
5.66374
 30
0.0
 11
60.591
 21
5.49973
 31
0.0
  0
LINE
  8
0
 62
     0
 10
60.591
 20
5.49973
 30
0.0
 11
60.7289
 21
5.33576
 31
0.0
  0
LINE
  8
0
 62
     0
 10
60.7289
 20
5.33576
 30
0.0
 11
61.214
 21
4.22645
 31
0.0
  0
LINE
  8
0
 62
     0
 10
61.214
 20
4.22645
 30
0.0
 11
61.4218
 21
2.836
 31
0.0
  0
LINE
  8
0
 62
     0
 10
61.4218
 20
2.836
 30
0.0
 11
61.4218
 21
2.37161
 31
0.0
  0
LINE
  8
0
 62
     0
 10
61.4218
 20
2.37161
 30
0.0
 11
61.4218
 21
2.18833
 31
0.0
  0
LINE
  8
0
 62
     0
 10
61.4218
 20
2.18833
 30
0.0
 11
61.4659
 21
1.63849
 31
0.0
  0
LINE
  8
0
 62
     0
 10
61.4659
 20
1.63849
 30
0.0
 11
61.5678
 21
1.25126
 31
0.0
  0
LINE
  8
0
 62
     0
 10
61.5678
 20
1.25126
 30
0.0
 11
61.5968
 21
1.20303
 31
0.0
  0
LINE
  8
0
 62
     0
 10
61.5968
 20
1.20303
 30
0.0
 11
61.626
 21
1.15755
 31
0.0
  0
LINE
  8
0
 62
     0
 10
61.626
 20
1.15755
 30
0.0
 11
62.067
 21
0.923286
 31
0.0
  0
LINE
  8
0
 62
     0
 10
62.067
 20
0.923286
 30
0.0
 11
62.2141
 21
0.923286
 31
0.0
  0
LINE
  8
0
 62
     0
 10
62.2141
 20
0.923286
 30
0.0
 11
62.3094
 21
0.923286
 31
0.0
  0
LINE
  8
0
 62
     0
 10
62.3094
 20
0.923286
 30
0.0
 11
62.5588
 21
0.957735
 31
0.0
  0
LINE
  8
0
 62
     0
 10
62.5588
 20
0.957735
 30
0.0
 11
62.5948
 21
0.964629
 31
0.0
  0
LINE
  8
0
 62
     0
 10
62.5948
 20
0.964629
 30
0.0
 11
62.629
 21
0.971518
 31
0.0
  0
LINE
  8
0
 62
     0
 10
62.629
 20
0.971518
 30
0.0
 11
62.9998
 21
1.07763
 31
0.0
  0
LINE
  8
0
 62
     0
 10
62.9998
 20
1.07763
 30
0.0
 11
63.041
 21
1.09141
 31
0.0
  0
LINE
  8
0
 62
     0
 10
63.041
 20
1.09141
 30
0.0
 11
63.2326
 21
0.584288
 31
0.0
  0
LINE
  8
0
 62
     0
 10
63.2326
 20
0.584288
 30
0.0
 11
63.1306
 21
0.538812
 31
0.0
  0
LINE
  8
0
 62
     0
 10
63.1306
 20
0.538812
 30
0.0
 11
62.1619
 21
0.188791
 31
0.0
  0
LINE
  8
0
 62
     0
 10
62.1619
 20
0.188791
 30
0.0
 11
62.0695
 21
0.163987
 31
0.0
  0
LINE
  8
0
 62
     0
 10
62.0695
 20
0.163987
 30
0.0
 11
61.976
 21
0.139182
 31
0.0
  0
LINE
  8
0
 62
     0
 10
61.976
 20
0.139182
 30
0.0
 11
61.3174
 21
0.0192925
 31
0.0
  0
LINE
  8
0
 62
     0
 10
61.3174
 20
0.0192925
 30
0.0
 11
61.0979
 21
0.0192925
 31
0.0
  0
LINE
  8
0
 62
     0
 10
61.0979
 20
0.0192925
 30
0.0
 11
60.7508
 21
0.0192925
 31
0.0
  0
LINE
  8
0
 62
     0
 10
60.7508
 20
0.0192925
 30
0.0
 11
59.8152
 21
0.209462
 31
0.0
  0
LINE
  8
0
 62
     0
 10
59.8152
 20
0.209462
 30
0.0
 11
59.7119
 21
0.248047
 31
0.0
  0
LINE
  8
0
 62
     0
 10
59.7119
 20
0.248047
 30
0.0
 11
59.6085
 21
0.286632
 31
0.0
  0
LINE
  8
0
 62
     0
 10
59.6085
 20
0.286632
 30
0.0
 11
58.7844
 21
0.822688
 31
0.0
  0
LINE
  8
0
 62
     0
 10
58.7844
 20
0.822688
 30
0.0
 11
58.7237
 21
0.891589
 31
0.0
  0
LINE
  8
0
 62
     0
 10
58.7237
 20
0.891589
 30
0.0
 11
58.6024
 21
1.02664
 31
0.0
  0
LINE
  8
0
 62
     0
 10
58.6024
 20
1.02664
 30
0.0
 11
58.1642
 21
2.0395
 31
0.0
  0
LINE
  8
0
 62
     0
 10
58.1642
 20
2.0395
 30
0.0
 11
57.9423
 21
3.51124
 31
0.0
  0
LINE
  8
0
 62
     0
 10
57.9423
 20
3.51124
 30
0.0
 11
57.9314
 21
3.87505
 31
0.0
  0
LINE
  8
0
 62
     0
 10
57.9314
 20
3.87505
 30
0.0
 11
57.93
 21
3.92603
 31
0.0
  0
LINE
  8
0
 62
     0
 10
57.93
 20
3.92603
 30
0.0
 11
57.9148
 21
4.29398
 31
0.0
  0
LINE
  8
0
 62
     0
 10
57.9148
 20
4.29398
 30
0.0
 11
57.9134
 21
4.31878
 31
0.0
  0
LINE
  8
0
 62
     0
 10
57.9134
 20
4.31878
 30
0.0
 11
57.9039
 21
4.53101
 31
0.0
  0
LINE
  8
0
 62
     0
 10
57.9039
 20
4.53101
 30
0.0
 11
57.7342
 21
5.39503
 31
0.0
  0
LINE
  8
0
 62
     0
 10
57.7342
 20
5.39503
 30
0.0
 11
57.4051
 21
6.0041
 31
0.0
  0
LINE
  8
0
 62
     0
 10
57.4051
 20
6.0041
 30
0.0
 11
57.3155
 21
6.08679
 31
0.0
  0
LINE
  8
0
 62
     0
 10
57.3155
 20
6.08679
 30
0.0
 11
57.223
 21
6.16948
 31
0.0
  0
LINE
  8
0
 62
     0
 10
57.223
 20
6.16948
 30
0.0
 11
56.5838
 21
6.45887
 31
0.0
  0
LINE
  8
0
 62
     0
 10
56.5838
 20
6.45887
 30
0.0
 11
55.7569
 21
6.5829
 31
0.0
  0
LINE
  8
0
 62
     0
 10
55.7569
 20
6.5829
 30
0.0
 11
55.4824
 21
6.5829
 31
0.0
  0
LINE
  8
0
 62
     0
 10
55.4824
 20
6.5829
 30
0.0
 11
55.1586
 21
6.5829
 31
0.0
  0
LINE
  8
0
 62
     0
 10
55.1586
 20
6.5829
 30
0.0
 11
55.1586
 21
0.887458
 31
0.0
  0
LINE
  8
0
 62
     0
 10
55.1586
 20
0.887458
 30
0.0
 11
56.7626
 21
0.887458
 31
0.0
  0
LINE
  8
0
 62
     0
 10
56.7626
 20
0.887458
 30
0.0
 11
56.7626
 21
0.283876
 31
0.0
  0
LINE
  8
0
 62
     0
 10
56.7626
 20
0.283876
 30
0.0
 11
50.6127
 21
0.283876
 31
0.0
  0
LINE
  8
0
 62
     0
 10
50.6127
 20
0.283876
 30
0.0
 11
50.6127
 21
0.887458
 31
0.0
  0
LINE
  8
0
 62
     0
 10
55.1586
 20
7.18647
 30
0.0
 11
56.7062
 21
7.18647
 31
0.0
  0
LINE
  8
0
 62
     0
 10
56.7062
 20
7.18647
 30
0.0
 11
56.9253
 21
7.18647
 31
0.0
  0
LINE
  8
0
 62
     0
 10
56.9253
 20
7.18647
 30
0.0
 11
57.5839
 21
7.29534
 31
0.0
  0
LINE
  8
0
 62
     0
 10
57.5839
 20
7.29534
 30
0.0
 11
58.0637
 21
7.55026
 31
0.0
  0
LINE
  8
0
 62
     0
 10
58.0637
 20
7.55026
 30
0.0
 11
58.1272
 21
7.62332
 31
0.0
  0
LINE
  8
0
 62
     0
 10
58.1272
 20
7.62332
 30
0.0
 11
58.1889
 21
7.69634
 31
0.0
  0
LINE
  8
0
 62
     0
 10
58.1889
 20
7.69634
 30
0.0
 11
58.4055
 21
8.3082
 31
0.0
  0
LINE
  8
0
 62
     0
 10
58.4055
 20
8.3082
 30
0.0
 11
58.4976
 21
9.18877
 31
0.0
  0
LINE
  8
0
 62
     0
 10
58.4976
 20
9.18877
 30
0.0
 11
58.4976
 21
9.48228
 31
0.0
  0
LINE
  8
0
 62
     0
 10
58.4976
 20
9.48228
 30
0.0
 11
58.4976
 21
9.84056
 31
0.0
  0
LINE
  8
0
 62
     0
 10
58.4976
 20
9.84056
 30
0.0
 11
58.4193
 21
10.9113
 31
0.0
  0
LINE
  8
0
 62
     0
 10
58.4193
 20
10.9113
 30
0.0
 11
58.2401
 21
11.5645
 31
0.0
  0
LINE
  8
0
 62
     0
 10
58.2401
 20
11.5645
 30
0.0
 11
58.1889
 21
11.6224
 31
0.0
  0
LINE
  8
0
 62
     0
 10
58.1889
 20
11.6224
 30
0.0
 11
58.1381
 21
11.6816
 31
0.0
  0
LINE
  8
0
 62
     0
 10
58.1381
 20
11.6816
 30
0.0
 11
57.6654
 21
11.8897
 31
0.0
  0
LINE
  8
0
 62
     0
 10
57.6654
 20
11.8897
 30
0.0
 11
56.9461
 21
11.9779
 31
0.0
  0
LINE
  8
0
 62
     0
 10
56.9461
 20
11.9779
 30
0.0
 11
56.7062
 21
11.9779
 31
0.0
  0
LINE
  8
0
 62
     0
 10
56.7062
 20
11.9779
 30
0.0
 11
55.1586
 21
11.9779
 31
0.0
  0
LINE
  8
0
 62
     0
 10
55.1586
 20
11.9779
 30
0.0
 11
55.1586
 21
7.18647
 31
0.0
  0
LINE
  8
0
 62
     0
 10
38.6348
 20
3.59943
 30
0.0
 11
38.6348
 21
11.9779
 31
0.0
  0
LINE
  8
0
 62
     0
 10
38.6348
 20
11.9779
 30
0.0
 11
37.2015
 21
11.9779
 31
0.0
  0
LINE
  8
0
 62
     0
 10
37.2015
 20
11.9779
 30
0.0
 11
37.2015
 21
12.5443
 31
0.0
  0
LINE
  8
0
 62
     0
 10
37.2015
 20
12.5443
 30
0.0
 11
43.331
 21
12.5443
 31
0.0
  0
LINE
  8
0
 62
     0
 10
43.331
 20
12.5443
 30
0.0
 11
43.331
 21
11.9779
 31
0.0
  0
LINE
  8
0
 62
     0
 10
43.331
 20
11.9779
 30
0.0
 11
41.7283
 21
11.9779
 31
0.0
  0
LINE
  8
0
 62
     0
 10
41.7283
 20
11.9779
 30
0.0
 11
41.7283
 21
3.66282
 31
0.0
  0
LINE
  8
0
 62
     0
 10
41.7283
 20
3.66282
 30
0.0
 11
41.7283
 21
3.32659
 31
0.0
  0
LINE
  8
0
 62
     0
 10
41.7283
 20
3.32659
 30
0.0
 11
41.8786
 21
2.31786
 31
0.0
  0
LINE
  8
0
 62
     0
 10
41.8786
 20
2.31786
 30
0.0
 11
42.2314
 21
1.51171
 31
0.0
  0
LINE
  8
0
 62
     0
 10
42.2314
 20
1.51171
 30
0.0
 11
42.3319
 21
1.39182
 31
0.0
  0
LINE
  8
0
 62
     0
 10
42.3319
 20
1.39182
 30
0.0
 11
42.4325
 21
1.27331
 31
0.0
  0
LINE
  8
0
 62
     0
 10
42.4325
 20
1.27331
 30
0.0
 11
43.1091
 21
0.858516
 31
0.0
  0
LINE
  8
0
 62
     0
 10
43.1091
 20
0.858516
 30
0.0
 11
43.9526
 21
0.679372
 31
0.0
  0
LINE
  8
0
 62
     0
 10
43.9526
 20
0.679372
 30
0.0
 11
44.2337
 21
0.679372
 31
0.0
  0
LINE
  8
0
 62
     0
 10
44.2337
 20
0.679372
 30
0.0
 11
44.5463
 21
0.679372
 31
0.0
  0
LINE
  8
0
 62
     0
 10
44.5463
 20
0.679372
 30
0.0
 11
45.394
 21
0.841982
 31
0.0
  0
LINE
  8
0
 62
     0
 10
45.394
 20
0.841982
 30
0.0
 11
45.4875
 21
0.873675
 31
0.0
  0
LINE
  8
0
 62
     0
 10
45.4875
 20
0.873675
 30
0.0
 11
45.5814
 21
0.906748
 31
0.0
  0
LINE
  8
0
 62
     0
 10
45.5814
 20
0.906748
 30
0.0
 11
46.3931
 21
1.38906
 31
0.0
  0
LINE
  8
0
 62
     0
 10
46.3931
 20
1.38906
 30
0.0
 11
46.4633
 21
1.45245
 31
0.0
  0
LINE
  8
0
 62
     0
 10
46.4633
 20
1.45245
 30
0.0
 11
46.5391
 21
1.52411
 31
0.0
  0
LINE
  8
0
 62
     0
 10
46.5391
 20
1.52411
 30
0.0
 11
47.0835
 21
2.37574
 31
0.0
  0
LINE
  8
0
 62
     0
 10
47.0835
 20
2.37574
 30
0.0
 11
47.1166
 21
2.47496
 31
0.0
  0
LINE
  8
0
 62
     0
 10
47.1166
 20
2.47496
 30
0.0
 11
47.148
 21
2.57555
 31
0.0
  0
LINE
  8
0
 62
     0
 10
47.148
 20
2.57555
 30
0.0
 11
47.2627
 21
3.30178
 31
0.0
  0
LINE
  8
0
 62
     0
 10
47.2627
 20
3.30178
 30
0.0
 11
47.3121
 21
4.26364
 31
0.0
  0
LINE
  8
0
 62
     0
 10
47.3121
 20
4.26364
 30
0.0
 11
47.3121
 21
4.58336
 31
0.0
  0
LINE
  8
0
 62
     0
 10
47.3121
 20
4.58336
 30
0.0
 11
47.3121
 21
11.0091
 31
0.0
  0
LINE
  8
0
 62
     0
 10
47.3121
 20
11.0091
 30
0.0
 11
47.3121
 21
11.2089
 31
0.0
  0
LINE
  8
0
 62
     0
 10
47.3121
 20
11.2089
 30
0.0
 11
47.1798
 21
11.7808
 31
0.0
  0
LINE
  8
0
 62
     0
 10
47.1798
 20
11.7808
 30
0.0
 11
47.1551
 21
11.8084
 31
0.0
  0
LINE
  8
0
 62
     0
 10
47.1551
 20
11.8084
 30
0.0
 11
47.129
 21
11.8374
 31
0.0
  0
LINE
  8
0
 62
     0
 10
47.129
 20
11.8374
 30
0.0
 11
46.5748
 21
11.9779
 31
0.0
  0
LINE
  8
0
 62
     0
 10
46.5748
 20
11.9779
 30
0.0
 11
46.3903
 21
11.9779
 31
0.0
  0
LINE
  8
0
 62
     0
 10
46.3903
 20
11.9779
 30
0.0
 11
45.7839
 21
11.9779
 31
0.0
  0
LINE
  8
0
 62
     0
 10
45.7839
 20
11.9779
 30
0.0
 11
45.7839
 21
12.5443
 31
0.0
  0
LINE
  8
0
 62
     0
 10
45.7839
 20
12.5443
 30
0.0
 11
49.6701
 21
12.5443
 31
0.0
  0
LINE
  8
0
 62
     0
 10
49.6701
 20
12.5443
 30
0.0
 11
49.6701
 21
11.9779
 31
0.0
  0
LINE
  8
0
 62
     0
 10
49.6701
 20
11.9779
 30
0.0
 11
49.0693
 21
11.9779
 31
0.0
  0
LINE
  8
0
 62
     0
 10
49.0693
 20
11.9779
 30
0.0
 11
48.8541
 21
11.9779
 31
0.0
  0
LINE
  8
0
 62
     0
 10
48.8541
 20
11.9779
 30
0.0
 11
48.2466
 21
11.8181
 31
0.0
  0
LINE
  8
0
 62
     0
 10
48.2466
 20
11.8181
 30
0.0
 11
48.2134
 21
11.785
 31
0.0
  0
LINE
  8
0
 62
     0
 10
48.2134
 20
11.785
 30
0.0
 11
48.1789
 21
11.7533
 31
0.0
  0
LINE
  8
0
 62
     0
 10
48.1789
 20
11.7533
 30
0.0
 11
48.0095
 21
11.1841
 31
0.0
  0
LINE
  8
0
 62
     0
 10
48.0095
 20
11.1841
 30
0.0
 11
48.0095
 21
10.994
 31
0.0
  0
LINE
  8
0
 62
     0
 10
48.0095
 20
10.994
 30
0.0
 11
48.0095
 21
4.58336
 31
0.0
  0
LINE
  8
0
 62
     0
 10
48.0095
 20
4.58336
 30
0.0
 11
48.0095
 21
4.28706
 31
0.0
  0
LINE
  8
0
 62
     0
 10
48.0095
 20
4.28706
 30
0.0
 11
47.9764
 21
3.39687
 31
0.0
  0
LINE
  8
0
 62
     0
 10
47.9764
 20
3.39687
 30
0.0
 11
47.8991
 21
2.6982
 31
0.0
  0
LINE
  8
0
 62
     0
 10
47.8991
 20
2.6982
 30
0.0
 11
47.8772
 21
2.59623
 31
0.0
  0
LINE
  8
0
 62
     0
 10
47.8772
 20
2.59623
 30
0.0
 11
47.8536
 21
2.49563
 31
0.0
  0
LINE
  8
0
 62
     0
 10
47.8536
 20
2.49563
 30
0.0
 11
47.4747
 21
1.62195
 31
0.0
  0
LINE
  8
0
 62
     0
 10
47.4747
 20
1.62195
 30
0.0
 11
47.4225
 21
1.54754
 31
0.0
  0
LINE
  8
0
 62
     0
 10
47.4225
 20
1.54754
 30
0.0
 11
47.3287
 21
1.41662
 31
0.0
  0
LINE
  8
0
 62
     0
 10
47.3287
 20
1.41662
 30
0.0
 11
46.7653
 21
0.86541
 31
0.0
  0
LINE
  8
0
 62
     0
 10
46.7653
 20
0.86541
 30
0.0
 11
46.0678
 21
0.447862
 31
0.0
  0
LINE
  8
0
 62
     0
 10
46.0678
 20
0.447862
 30
0.0
 11
45.9094
 21
0.384471
 31
0.0
  0
LINE
  8
0
 62
     0
 10
45.9094
 20
0.384471
 30
0.0
 11
45.7496
 21
0.321083
 31
0.0
  0
LINE
  8
0
 62
     0
 10
45.7496
 20
0.321083
 30
0.0
 11
44.8275
 21
0.0978408
 31
0.0
  0
LINE
  8
0
 62
     0
 10
44.8275
 20
0.0978408
 30
0.0
 11
43.8298
 21
0.00137804
 31
0.0
  0
LINE
  8
0
 62
     0
 10
43.8298
 20
0.00137804
 30
0.0
 11
43.4979
 21
0.00137804
 31
0.0
  0
LINE
  8
0
 62
     0
 10
43.4979
 20
0.00137804
 30
0.0
 11
42.9729
 21
0.00137804
 31
0.0
  0
LINE
  8
0
 62
     0
 10
42.9729
 20
0.00137804
 30
0.0
 11
41.3992
 21
0.23151
 31
0.0
  0
LINE
  8
0
 62
     0
 10
41.3992
 20
0.23151
 30
0.0
 11
40.0801
 21
0.767567
 31
0.0
  0
LINE
  8
0
 62
     0
 10
40.0801
 20
0.767567
 30
0.0
 11
39.8734
 21
0.920531
 31
0.0
  0
LINE
  8
0
 62
     0
 10
39.8734
 20
0.920531
 30
0.0
 11
39.6667
 21
1.07487
 31
0.0
  0
LINE
  8
0
 62
     0
 10
39.6667
 20
1.07487
 30
0.0
 11
38.9435
 21
2.0519
 31
0.0
  0
LINE
  8
0
 62
     0
 10
38.9435
 20
2.0519
 30
0.0
 11
38.6348
 21
3.21359
 31
0.0
  0
LINE
  8
0
 62
     0
 10
38.6348
 20
3.21359
 30
0.0
 11
38.6348
 21
3.59943
 31
0.0
  0
LINE
  8
0
 62
     0
 10
27.332
 20
0.283876
 30
0.0
 11
27.332
 21
0.887458
 31
0.0
  0
LINE
  8
0
 62
     0
 10
27.332
 20
0.887458
 30
0.0
 11
28.841
 21
0.887458
 31
0.0
  0
LINE
  8
0
 62
     0
 10
28.841
 20
0.887458
 30
0.0
 11
28.841
 21
11.9779
 31
0.0
  0
LINE
  8
0
 62
     0
 10
28.841
 20
11.9779
 30
0.0
 11
28.1781
 21
11.9779
 31
0.0
  0
LINE
  8
0
 62
     0
 10
28.1781
 20
11.9779
 30
0.0
 11
27.908
 21
11.9779
 31
0.0
  0
LINE
  8
0
 62
     0
 10
27.908
 20
11.9779
 30
0.0
 11
27.1005
 21
11.7919
 31
0.0
  0
LINE
  8
0
 62
     0
 10
27.1005
 20
11.7919
 30
0.0
 11
26.3949
 21
11.3578
 31
0.0
  0
LINE
  8
0
 62
     0
 10
26.3949
 20
11.3578
 30
0.0
 11
26.2792
 21
11.2338
 31
0.0
  0
LINE
  8
0
 62
     0
 10
26.2792
 20
11.2338
 30
0.0
 11
26.1621
 21
11.1097
 31
0.0
  0
LINE
  8
0
 62
     0
 10
26.1621
 20
11.1097
 30
0.0
 11
25.6232
 21
10.1989
 31
0.0
  0
LINE
  8
0
 62
     0
 10
25.6232
 20
10.1989
 30
0.0
 11
25.1382
 21
8.90076
 31
0.0
  0
LINE
  8
0
 62
     0
 10
25.1382
 20
8.90076
 30
0.0
 11
25.05
 21
8.58241
 31
0.0
  0
LINE
  8
0
 62
     0
 10
25.05
 20
8.58241
 30
0.0
 11
24.5594
 21
8.58241
 31
0.0
  0
LINE
  8
0
 62
     0
 10
24.5594
 20
8.58241
 30
0.0
 11
24.7069
 21
12.5443
 31
0.0
  0
LINE
  8
0
 62
     0
 10
24.7069
 20
12.5443
 30
0.0
 11
36.135
 21
12.5443
 31
0.0
  0
LINE
  8
0
 62
     0
 10
36.135
 20
12.5443
 30
0.0
 11
36.292
 21
8.58241
 31
0.0
  0
LINE
  8
0
 62
     0
 10
36.292
 20
8.58241
 30
0.0
 11
35.8013
 21
8.58241
 31
0.0
  0
LINE
  8
0
 62
     0
 10
35.8013
 20
8.58241
 30
0.0
 11
35.7173
 21
8.89109
 31
0.0
  0
LINE
  8
0
 62
     0
 10
35.7173
 20
8.89109
 30
0.0
 11
35.2447
 21
10.163
 31
0.0
  0
LINE
  8
0
 62
     0
 10
35.2447
 20
10.163
 30
0.0
 11
34.7059
 21
11.0767
 31
0.0
  0
LINE
  8
0
 62
     0
 10
34.7059
 20
11.0767
 30
0.0
 11
34.5888
 21
11.2048
 31
0.0
  0
LINE
  8
0
 62
     0
 10
34.5888
 20
11.2048
 30
0.0
 11
34.4689
 21
11.3344
 31
0.0
  0
LINE
  8
0
 62
     0
 10
34.4689
 20
11.3344
 30
0.0
 11
33.7619
 21
11.7864
 31
0.0
  0
LINE
  8
0
 62
     0
 10
33.7619
 20
11.7864
 30
0.0
 11
32.9723
 21
11.9779
 31
0.0
  0
LINE
  8
0
 62
     0
 10
32.9723
 20
11.9779
 30
0.0
 11
32.7091
 21
11.9779
 31
0.0
  0
LINE
  8
0
 62
     0
 10
32.7091
 20
11.9779
 30
0.0
 11
32.0105
 21
11.9779
 31
0.0
  0
LINE
  8
0
 62
     0
 10
32.0105
 20
11.9779
 30
0.0
 11
32.0105
 21
0.887458
 31
0.0
  0
LINE
  8
0
 62
     0
 10
32.0105
 20
0.887458
 30
0.0
 11
33.5194
 21
0.887458
 31
0.0
  0
LINE
  8
0
 62
     0
 10
33.5194
 20
0.887458
 30
0.0
 11
33.5194
 21
0.283876
 31
0.0
  0
LINE
  8
0
 62
     0
 10
33.5194
 20
0.283876
 30
0.0
 11
27.332
 21
0.283876
 31
0.0
  0
LINE
  8
0
 62
     0
 10
16.2719
 20
4.35737
 30
0.0
 11
19.5985
 21
4.35737
 31
0.0
  0
LINE
  8
0
 62
     0
 10
19.5985
 20
4.35737
 30
0.0
 11
17.9792
 21
8.6541
 31
0.0
  0
LINE
  8
0
 62
     0
 10
17.9792
 20
8.6541
 30
0.0
 11
16.2719
 21
4.35737
 31
0.0
  0
LINE
  8
0
 62
     0
 10
13.0128
 20
0.283876
 30
0.0
 11
13.0128
 21
0.887458
 31
0.0
  0
LINE
  8
0
 62
     0
 10
13.0128
 20
0.887458
 30
0.0
 11
13.7666
 21
0.887458
 31
0.0
  0
LINE
  8
0
 62
     0
 10
13.7666
 20
0.887458
 30
0.0
 11
13.892
 21
0.887458
 31
0.0
  0
LINE
  8
0
 62
     0
 10
13.892
 20
0.887458
 30
0.0
 11
14.2393
 21
1.05833
 31
0.0
  0
LINE
  8
0
 62
     0
 10
14.2393
 20
1.05833
 30
0.0
 11
14.2723
 21
1.09141
 31
0.0
  0
LINE
  8
0
 62
     0
 10
14.2723
 20
1.09141
 30
0.0
 11
14.3054
 21
1.12586
 31
0.0
  0
LINE
  8
0
 62
     0
 10
14.3054
 20
1.12586
 30
0.0
 11
14.6527
 21
1.73909
 31
0.0
  0
LINE
  8
0
 62
     0
 10
14.6527
 20
1.73909
 30
0.0
 11
14.6885
 21
1.82728
 31
0.0
  0
LINE
  8
0
 62
     0
 10
14.6885
 20
1.82728
 30
0.0
 11
18.9012
 21
12.7896
 31
0.0
  0
LINE
  8
0
 62
     0
 10
18.9012
 20
12.7896
 30
0.0
 11
19.6371
 21
12.7896
 31
0.0
  0
LINE
  8
0
 62
     0
 10
19.6371
 20
12.7896
 30
0.0
 11
24.2425
 21
0.887458
 31
0.0
  0
LINE
  8
0
 62
     0
 10
24.2425
 20
0.887458
 30
0.0
 11
25.3297
 21
0.887458
 31
0.0
  0
LINE
  8
0
 62
     0
 10
25.3297
 20
0.887458
 30
0.0
 11
25.3297
 21
0.283876
 31
0.0
  0
LINE
  8
0
 62
     0
 10
25.3297
 20
0.283876
 30
0.0
 11
19.3876
 21
0.283876
 31
0.0
  0
LINE
  8
0
 62
     0
 10
19.3876
 20
0.283876
 30
0.0
 11
19.3876
 21
0.887458
 31
0.0
  0
LINE
  8
0
 62
     0
 10
19.3876
 20
0.887458
 30
0.0
 11
20.8814
 21
0.887458
 31
0.0
  0
LINE
  8
0
 62
     0
 10
20.8814
 20
0.887458
 30
0.0
 11
19.8024
 21
3.75377
 31
0.0
  0
LINE
  8
0
 62
     0
 10
19.8024
 20
3.75377
 30
0.0
 11
16.0707
 21
3.75377
 31
0.0
  0
LINE
  8
0
 62
     0
 10
16.0707
 20
3.75377
 30
0.0
 11
15.2604
 21
1.65916
 31
0.0
  0
LINE
  8
0
 62
     0
 10
15.2604
 20
1.65916
 30
0.0
 11
15.2549
 21
1.65089
 31
0.0
  0
LINE
  8
0
 62
     0
 10
15.2549
 20
1.65089
 30
0.0
 11
15.2204
 21
1.51033
 31
0.0
  0
LINE
  8
0
 62
     0
 10
15.2204
 20
1.51033
 30
0.0
 11
15.219
 21
1.49104
 31
0.0
  0
LINE
  8
0
 62
     0
 10
15.219
 20
1.49104
 30
0.0
 11
15.2163
 21
1.47312
 31
0.0
  0
LINE
  8
0
 62
     0
 10
15.2163
 20
1.47312
 30
0.0
 11
15.2039
 21
1.28295
 31
0.0
  0
LINE
  8
0
 62
     0
 10
15.2039
 20
1.28295
 30
0.0
 11
15.2039
 21
1.21956
 31
0.0
  0
LINE
  8
0
 62
     0
 10
15.2039
 20
1.21956
 30
0.0
 11
15.2039
 21
1.15893
 31
0.0
  0
LINE
  8
0
 62
     0
 10
15.2039
 20
1.15893
 30
0.0
 11
15.3238
 21
0.990808
 31
0.0
  0
LINE
  8
0
 62
     0
 10
15.3238
 20
0.990808
 30
0.0
 11
15.3486
 21
0.975653
 31
0.0
  0
LINE
  8
0
 62
     0
 10
15.3486
 20
0.975653
 30
0.0
 11
15.372
 21
0.960494
 31
0.0
  0
LINE
  8
0
 62
     0
 10
15.372
 20
0.960494
 30
0.0
 11
15.6531
 21
0.887458
 31
0.0
  0
LINE
  8
0
 62
     0
 10
15.6531
 20
0.887458
 30
0.0
 11
15.7468
 21
0.887458
 31
0.0
  0
LINE
  8
0
 62
     0
 10
15.7468
 20
0.887458
 30
0.0
 11
16.8451
 21
0.887458
 31
0.0
  0
LINE
  8
0
 62
     0
 10
16.8451
 20
0.887458
 30
0.0
 11
16.8451
 21
0.283876
 31
0.0
  0
LINE
  8
0
 62
     0
 10
16.8451
 20
0.283876
 30
0.0
 11
13.0128
 21
0.283876
 31
0.0
  0
ENDSEC
  0
EOF
